<svg version="1.1" xmlns="http://www.w3.org/2000/svg" width="330px" height="30px" viewBox="0 0 330 30" >
<defs>
  <filter id="shadow" x="-50%" y="-50%" width="200%" height="200%">
    <feOffset result="offOut" in="SourceGraphic" dx="0" dy="0" />
    <feColorMatrix result="matrixOut" in="offOut" type="matrix"
      values="0.0 0 0 0 0 0 0.098 0 0 0 0 0 0.2812 0 0 0 0 0 1 0" />
    <feGaussianBlur result="blurOut" in="matrixOut" stdDeviation="5" />
    <feBlend in="SourceGraphic" in2="blurOut" mode="normal" />
  </filter>
  
  <filter id="shadow2" x="-50%" y="-50%" width="200%" height="200%">
    <feOffset result="offOut" in="SourceGraphic" dx="0" dy="0" />
    <feColorMatrix result="matrixOut" in="offOut" type="matrix"
      values="0.0 0 0 0 0 0 0.098 0 0 0 0 0 0.28125 0 0 0 0 0 .4 0" />
    <feGaussianBlur result="blurOut" in="matrixOut" stdDeviation="3" />
    <feBlend in="SourceGraphic" in2="blurOut" mode="normal" />
  </filter>
</defs>

<g id="Monogram">
	<path id="B" fill="#FFFFFF" filter="url(#shadow2)" d="M24.221,13.987c0.993-0.419,1.496-1.262,1.496-2.51c0-2.115-1.365-2.977-4.712-2.977h-7.559
		l-0.114,0.019l-0.015,0.095c-0.011,0.064,0.02,0.125,0.073,0.149l0.032,0.011c0.333,0.073,0.484,0.114,0.748,0.242
		c0.142,0.073,0.166,0.195,0.166,0.523l-0.002,9.705c0,0.326-0.025,0.455-0.166,0.526c-0.276,0.132-0.431,0.174-0.752,0.246
		l-0.114,0.041l0.008,0.104c0.006,0.072,0.062,0.126,0.132,0.126h7.851c3.981,0,4.816-1.89,4.816-3.476
		C26.11,15.354,25.475,14.406,24.221,13.987z M19.956,13.206h-1.71v-2.297h1.662c1.142,0,1.722,0.173,1.722,1.117
		C21.63,12.797,21.051,13.206,19.956,13.206z M21.838,16.524c0,0.866-0.671,1.305-1.994,1.305h-1.597v-2.611h1.427
		C20.688,15.218,21.838,15.218,21.838,16.524z"/>
	<path id="Y" fill="#FFFFFF" filter="url(#shadow2)" d="M40.692,8.5h-5.439l-0.119,0.019l-0.011,0.101c-0.006,0.055,0.018,0.105,0.059,0.132l0.024,0.024
		h0.047c0.115,0,0.232,0.006,0.3,0.077c0.051,0.054,0.075,0.147,0.069,0.278c-0.01,0.243-1.074,1.838-1.646,2.695
		c-0.236,0.354-0.436,0.654-0.555,0.843c-0.128-0.192-0.276-0.41-0.433-0.642c-0.696-1.028-1.749-2.582-1.76-2.896
		c-0.004-0.099,0.02-0.176,0.076-0.234c0.073-0.077,0.203-0.121,0.356-0.121l0.044-0.003l0.023-0.017
		c0.046-0.027,0.071-0.083,0.063-0.142L31.758,8.5h-5.77l-0.114,0.018l-0.015,0.095c-0.011,0.067,0.023,0.13,0.08,0.153l0.029,0.009
		c0.223,0.042,0.333,0.066,0.611,0.201c0.024,0.011,0.094,0.059,0.119,0.082c0.169,0.141,0.3,0.298,0.519,0.622l3.98,5.894
		l0.001,3.673c0,0.324-0.026,0.452-0.165,0.524c-0.273,0.131-0.427,0.176-0.754,0.247l-0.114,0.042l0.009,0.103
		c0.006,0.073,0.062,0.126,0.132,0.126h6.154c0.07,0,0.126-0.055,0.132-0.127c0.004-0.054-0.02-0.103-0.067-0.128l0.001-0.002
		l-0.039-0.016c-0.325-0.07-0.479-0.115-0.75-0.244c-0.142-0.073-0.167-0.2-0.167-0.523v-3.653l3.987-5.916
		c0.219-0.326,0.349-0.484,0.518-0.624c0.028-0.024,0.091-0.077,0.13-0.102c0.152-0.097,0.227-0.138,0.417-0.18l0.033-0.012
		c0.051-0.025,0.081-0.084,0.071-0.148L40.692,8.5z"/>
	<path id="U" fill="#FFFFFF" filter="url(#shadow2)" d="M55.112,8.5h-5.936l-0.118,0.021L49.046,8.62c-0.009,0.071,0.031,0.134,0.105,0.153
		c0.332,0.073,0.483,0.112,0.747,0.242c0.144,0.075,0.17,0.202,0.17,0.522v5.835c0,1.381-0.828,2.238-2.161,2.238
		c-1.334,0-2.163-0.857-2.163-2.238l0.001-5.832c0-0.322,0.025-0.45,0.166-0.521c0.271-0.134,0.421-0.174,0.725-0.244
		c0.019,0,0.039-0.005,0.058-0.014l0.081-0.023L46.77,8.631C46.766,8.556,46.709,8.5,46.637,8.5h-5.512l-0.119,0.021l-0.012,0.1
		c-0.007,0.057,0.018,0.11,0.062,0.136L41.1,8.774c0.171,0.04,0.279,0.094,0.404,0.203c0.142,0.119,0.188,0.256,0.188,0.563v5.735
		c0,4.546,3.895,5.225,6.216,5.225c2.321,0,6.214-0.678,6.214-5.225V9.54c0-0.321,0.025-0.448,0.165-0.519
		c0.27-0.133,0.421-0.173,0.729-0.244l0.045-0.003l0.023-0.018c0.045-0.027,0.07-0.082,0.061-0.141L55.112,8.5z"/>
</g>
<g id="Logotype">
	<g id="Brigham">
		<path id="B_1_" fill="#FFFFFF" filter="url(#shadow)" d="M75.451,14.151c0.783-0.471,1.226-1.142,1.226-1.871c0-0.798-0.698-1.985-2.622-1.985
			c-0.314,0-0.54,0.008-0.755,0.015c-0.193,0.007-0.377,0.013-0.61,0.013c-0.233,0-0.491-0.006-0.76-0.013
			c-0.298-0.007-0.61-0.015-0.923-0.015c-0.057,0-0.121,0.041-0.132,0.132c-0.011,0.085,0.027,0.184,0.134,0.21
			c0.5,0.048,0.797,0.09,0.942,0.173c0.136,0.073,0.221,0.587,0.221,2.917v1.933c0,2.327-0.085,2.841-0.224,2.917
			c-0.14,0.081-0.426,0.122-0.951,0.174c-0.093,0.02-0.132,0.117-0.123,0.203c0.01,0.094,0.074,0.136,0.132,0.136
			c0.313,0,0.625-0.007,0.923-0.015c0.269-0.007,0.526-0.013,0.76-0.013s0.421,0.007,0.617,0.013
			c0.216,0.007,0.441,0.015,0.747,0.015c2.521,0,3.417-1.428,3.418-2.651C77.473,15.336,76.74,14.514,75.451,14.151z M73.205,12.957
			c0-0.477,0-1.901,0.058-2.115c0.079-0.029,0.375-0.073,0.764-0.073c0.744,0,1.499,0.61,1.499,1.775
			c0,1.004-0.541,1.579-1.484,1.579c-0.578,0-0.764-0.034-0.812-0.043C73.221,14.002,73.205,13.753,73.205,12.957z M76.295,16.772
			c0,1.094-0.746,1.829-1.858,1.829c-0.639,0-1.044-0.124-1.099-0.204c-0.014-0.019-0.134-0.231-0.134-1.998
			c0-0.736,0.003-1.581,0.023-1.793c0.082-0.009,0.281-0.02,0.668-0.02c0.676,0,1.285,0.209,1.715,0.587
			C76.059,15.568,76.296,16.121,76.295,16.772z"/>
		<path id="R" fill="#FFFFFF" filter="url(#shadow)" d="M89.61,18.629c-0.001,0-0.001,0-0.002,0c-0.097,0.011-0.256,0.011-0.383,0.011
			c-0.843,0-1.905-1.064-3.656-3.665c0.727-0.458,1.547-1.247,1.547-2.471c0-1.1-0.905-2.21-2.927-2.21
			c-0.304,0-0.594,0.007-0.872,0.015c-0.506,0.013-0.955,0.013-1.467,0c-0.281-0.007-0.574-0.015-0.878-0.015
			c-0.058,0-0.121,0.041-0.132,0.132c-0.011,0.085,0.027,0.184,0.134,0.21c0.524,0.052,0.736,0.093,0.87,0.171
			c0.162,0.094,0.228,0.939,0.228,2.919v1.933c0,1.977-0.066,2.822-0.229,2.917c-0.146,0.086-0.397,0.123-0.882,0.174
			c-0.092,0.02-0.132,0.117-0.123,0.202c0.01,0.094,0.074,0.137,0.133,0.137h3.469c0.071,0,0.125-0.056,0.132-0.137
			c0.007-0.085-0.039-0.185-0.144-0.203l-0.3-0.034c-0.395-0.044-0.681-0.075-0.804-0.14c-0.142-0.078-0.236-0.603-0.236-2.916
			v-0.327c0.45,0.019,0.958,0.02,1.558,0.008c1.108,1.891,1.798,2.806,2.454,3.254c0.536,0.358,0.948,0.468,1.766,0.468
			c0.311,0,0.508-0.01,0.803-0.07c0.086-0.029,0.109-0.136,0.095-0.221C89.746,18.667,89.676,18.629,89.61,18.629z M85.939,13.009
			c0,0.929-0.56,1.87-1.631,1.87c-0.697,0-1.112-0.079-1.165-0.123c-0.037-0.061-0.055-0.407-0.055-1.03
			c0-1.827,0.085-2.685,0.123-2.828c0.107-0.034,0.536-0.089,0.965-0.089C85.476,10.809,85.939,11.945,85.939,13.009z"/>
		<path id="I" fill="#FFFFFF" filter="url(#shadow)" d="M95.049,18.75c-0.484-0.05-0.837-0.092-0.977-0.172c-0.162-0.096-0.228-0.942-0.228-2.918v-1.933
			c0-1.979,0.066-2.825,0.226-2.919c0.146-0.084,0.529-0.128,0.993-0.175c0.092-0.022,0.131-0.123,0.121-0.207
			c-0.011-0.091-0.074-0.132-0.132-0.132h-3.446c-0.056,0-0.121,0.042-0.13,0.133c-0.008,0.086,0.037,0.188,0.149,0.209
			c0.44,0.043,0.816,0.087,0.966,0.173c0.138,0.073,0.224,0.587,0.224,2.917v1.933c0,2.327-0.086,2.841-0.227,2.917
			c-0.142,0.083-0.489,0.123-0.97,0.173c-0.102,0.017-0.15,0.117-0.143,0.203c0.008,0.094,0.073,0.137,0.131,0.137h3.446
			c0.058,0,0.121-0.042,0.131-0.136C95.193,18.868,95.154,18.771,95.049,18.75z"/>
		<path id="G" fill="#FFFFFF" filter="url(#shadow)" d="M106.91,14.814h-3.073c-0.066,0-0.132,0.054-0.132,0.158c0,0.038,0.01,0.075,0.027,0.105
			c0.029,0.049,0.087,0.08,0.117,0.076l0.073,0.009c0.442,0.057,0.762,0.099,0.896,0.177c0.103,0.116,0.131,1.554,0.144,2.967
			c-0.399,0.165-0.966,0.27-1.47,0.27c-2.591,0-3.989-2.145-3.989-4.162c0-1.828,1.036-3.672,3.352-3.672
			c0.848,0,1.707,0.452,2.181,0.899c0.248,0.237,0.446,0.646,0.484,1.001c0.015,0.088,0.094,0.149,0.194,0.149
			c0.099,0,0.174-0.065,0.174-0.152c0-0.473-0.022-0.941-0.042-1.355c-0.01-0.21-0.019-0.399-0.024-0.556
			c0-0.071-0.058-0.146-0.166-0.146c-0.016,0-0.034,0.002-0.057,0.007c-0.172,0.039-0.432-0.023-0.779-0.11
			c-0.441-0.111-1.046-0.264-1.833-0.264c-3.052,0-4.649,2.305-4.649,4.582c0,2.411,2.109,4.373,4.702,4.373
			c1.043,0,2.1-0.276,2.902-0.756l0.051-0.031v-0.179c-0.02-1.944,0.016-2.807,0.113-2.881c0.123-0.082,0.271-0.101,0.665-0.151
			l0.126-0.017c0.052,0,0.098-0.026,0.125-0.071c0.016-0.028,0.025-0.062,0.025-0.099C107.047,14.886,106.99,14.814,106.91,14.814z"
			/>
		<path id="H" fill="#FFFFFF" filter="url(#shadow)" d="M119.612,18.75c-0.52-0.054-0.725-0.095-0.872-0.172c-0.118-0.069-0.227-0.471-0.227-2.918v-1.933
			c0-1.981,0.065-2.827,0.223-2.917c0.155-0.082,0.359-0.123,0.89-0.176c0.092-0.022,0.13-0.123,0.121-0.207
			c-0.011-0.092-0.074-0.132-0.132-0.132h-3.221c-0.056,0-0.119,0.04-0.13,0.131c-0.011,0.086,0.026,0.185,0.134,0.211
			c0.516,0.051,0.72,0.092,0.872,0.172c0.161,0.092,0.226,0.938,0.226,2.919v0.596h-4.943v-0.596c0-2.329,0.085-2.843,0.225-2.919
			c0.139-0.079,0.348-0.121,0.874-0.175c0.092-0.022,0.131-0.123,0.121-0.207c-0.011-0.091-0.074-0.132-0.132-0.132h-3.22
			c-0.057,0-0.119,0.04-0.13,0.131c-0.011,0.084,0.028,0.186,0.135,0.211c0.524,0.052,0.735,0.094,0.87,0.172
			c0.161,0.092,0.226,0.938,0.226,2.919v1.933c0,1.978-0.066,2.823-0.227,2.917c-0.146,0.085-0.397,0.123-0.881,0.174
			c-0.094,0.02-0.134,0.117-0.125,0.203c0.01,0.094,0.073,0.136,0.131,0.136h3.22c0.058,0,0.121-0.042,0.131-0.136
			c0.009-0.086-0.03-0.183-0.135-0.204c-0.522-0.054-0.722-0.094-0.861-0.173c-0.138-0.076-0.224-0.59-0.224-2.916v-0.784h4.943
			v0.784c0,2.447-0.109,2.848-0.223,2.916c-0.15,0.079-0.355,0.12-0.886,0.176c-0.093,0.02-0.132,0.117-0.123,0.203
			c0.01,0.094,0.073,0.136,0.131,0.136h3.221c0.058,0,0.122-0.042,0.132-0.136C119.756,18.868,119.716,18.771,119.612,18.75z"/>
		<path id="A" fill="#FFFFFF" filter="url(#shadow)" d="M130.41,18.75l-0.077-0.008c-0.314-0.034-0.487-0.052-0.672-0.161
			c-0.169-0.11-0.394-0.545-1.35-2.958l-0.742-1.934c-0.456-1.156-0.796-2.08-1.214-3.29c-0.049-0.172-0.293-0.193-0.373-0.002
			c-0.273,0.887-0.639,1.874-0.991,2.828l-0.874,2.4c-0.889,2.428-1.161,2.827-1.29,2.917c-0.173,0.128-0.381,0.168-0.789,0.209
			c-0.083,0.014-0.135,0.087-0.128,0.179c0.008,0.093,0.069,0.16,0.145,0.16h2.489c0.073,0,0.128-0.061,0.138-0.15
			c0.01-0.095-0.038-0.173-0.128-0.19c-0.522-0.05-0.753-0.078-0.753-0.216c0-0.268,0.276-1.134,0.897-2.811h2.553
			c0.742,1.854,1.031,2.662,1.031,2.879c0,0.087-0.304,0.115-0.549,0.138l-0.114,0.011c-0.078,0.017-0.125,0.096-0.115,0.191
			c0.009,0.088,0.065,0.147,0.138,0.147h2.757c0.074,0,0.129-0.06,0.139-0.149C130.548,18.846,130.499,18.767,130.41,18.75z
			 M127.054,15.184h-2.164l1.071-2.969L127.054,15.184z"/>
		<path id="M" fill="#FFFFFF" filter="url(#shadow)" d="M143.935,18.75c-0.532-0.054-0.74-0.094-0.891-0.175c-0.146-0.074-0.244-0.648-0.498-2.925
			l-0.198-1.932c-0.122-1.221-0.187-2.167-0.252-3.289c0-0.094-0.085-0.165-0.198-0.165c-0.084,0-0.148,0.042-0.162,0.093
			l-3.353,7.17l-3.624-7.172c-0.028-0.057-0.09-0.091-0.166-0.091c-0.104,0-0.188,0.061-0.204,0.163
			c-0.022,0.817-0.076,1.722-0.129,2.598l-0.177,2.63c-0.128,1.81-0.268,2.757-0.431,2.896c-0.123,0.114-0.438,0.154-0.915,0.203
			c-0.094,0.02-0.143,0.126-0.134,0.213c0.009,0.086,0.072,0.125,0.126,0.125h2.797c0.074,0,0.13-0.06,0.139-0.148
			c0.01-0.096-0.038-0.174-0.128-0.192l-0.103-0.011c-0.279-0.029-0.595-0.064-0.694-0.141c-0.123-0.092-0.261-0.501-0.035-2.995
			l0.183-2.618l3.111,6.091c0.038,0.05,0.096,0.078,0.159,0.078c0.066,0,0.123-0.03,0.15-0.083l2.884-6.137l0.271,2.738
			c0.134,1.204,0.292,2.819,0.116,2.941c-0.086,0.07-0.308,0.093-0.564,0.12l-0.169,0.018c-0.082,0.014-0.134,0.088-0.126,0.18
			c0.008,0.092,0.069,0.159,0.144,0.159c0.621,0,2.465,0,3.101,0.001c0.065,0,0.115-0.048,0.122-0.116
			C144.096,18.897,144.051,18.775,143.935,18.75z"/>
	</g>
	<g id="Young">
		<path id="Y_1_" fill="#FFFFFF" filter="url(#shadow)" d="M159.81,10.282h-2.517c-0.081,0-0.141,0.075-0.141,0.178c0,0.107,0.07,0.162,0.132,0.162
			c0,0,0,0,0,0c0.276,0.02,0.693,0.051,0.767,0.087c0.031,0.023,0.061,0.209-0.836,1.637l-1.367,2.286l-1.219-2.06
			c-0.609-1.099-0.965-1.747-0.987-1.895c0.089-0.033,0.336-0.042,0.52-0.049l0.148-0.006c0.069,0,0.14-0.056,0.14-0.164
			c0-0.103-0.059-0.177-0.14-0.177h-2.834c-0.09,0-0.144,0.093-0.144,0.182c0,0.036,0.009,0.068,0.026,0.094
			c0.026,0.04,0.069,0.063,0.11,0.063c0,0,0,0,0.001,0c0.081,0.006,0.154,0.01,0.22,0.013c0.23,0.013,0.37,0.02,0.535,0.089
			c0.127,0.044,0.26,0.257,0.902,1.278l1.084,1.724c0.342,0.562,0.631,1.044,0.924,1.562v0.357c0,2.459-0.11,2.862-0.227,2.931
			c-0.139,0.08-0.493,0.122-0.988,0.174c-0.094,0.02-0.135,0.116-0.126,0.202c0.009,0.094,0.075,0.137,0.132,0.137h3.446
			c0.058,0,0.121-0.042,0.131-0.135c0.009-0.086-0.03-0.183-0.134-0.205c-0.484-0.05-0.838-0.092-0.978-0.172
			c-0.162-0.096-0.228-0.945-0.228-2.932v-0.409c0.276-0.475,0.58-0.969,0.875-1.447l0.754-1.243c0.889-1.471,1.1-1.757,1.207-1.812
			c0.166-0.066,0.401-0.083,0.726-0.105l0.084-0.006c0.069,0,0.14-0.056,0.14-0.163C159.95,10.357,159.891,10.282,159.81,10.282z"/>
		<path id="O" fill="#FFFFFF" filter="url(#shadow)" d="M166.591,10.215c-2.216,0-4.609,1.752-4.609,4.582c0,2.452,1.943,4.373,4.423,4.373
			c1.297,0,2.485-0.504,3.346-1.419c0.802-0.851,1.262-2.005,1.262-3.165C171.014,12.135,169.071,10.215,166.591,10.215z
			 M169.852,14.971c0,1.801-0.984,3.617-3.18,3.617c-2.11,0-3.527-2.158-3.527-4.175c0-1.801,0.988-3.617,3.195-3.617
			C168.441,10.796,169.852,12.955,169.852,14.971z"/>
		<path id="U_1_" fill="#FFFFFF" filter="url(#shadow)" d="M182.691,10.294h-2.822c-0.074,0-0.135,0.066-0.144,0.156c-0.009,0.092,0.041,0.168,0.133,0.186
			c0.461,0.045,0.797,0.086,0.924,0.203c0.129,0.108,0.189,1.026,0.189,2.888v2.158c0,1.554-0.942,2.558-2.4,2.558
			c-1.634,0-2.689-1.061-2.689-2.703v-2.013c0-2.331,0.084-2.844,0.224-2.919c0.145-0.083,0.432-0.124,0.924-0.174
			c0.084-0.018,0.137-0.1,0.128-0.197c-0.009-0.085-0.065-0.143-0.137-0.143h-3.285c-0.056,0-0.119,0.04-0.13,0.13
			c-0.011,0.086,0.025,0.185,0.133,0.212c0.521,0.05,0.733,0.092,0.872,0.172c0.161,0.092,0.226,0.938,0.226,2.919v2.253
			c0,1.878,1.41,3.189,3.428,3.189c2.193,0,3.376-1.659,3.376-3.22v-2.223c0-1.834,0.062-2.779,0.194-2.891
			c0.123-0.112,0.366-0.152,0.882-0.203c0.078-0.02,0.125-0.1,0.114-0.195C182.82,10.352,182.763,10.294,182.691,10.294z"/>
		<path id="N" fill="#FFFFFF" filter="url(#shadow)" d="M195.424,10.295h-3.073c-0.056,0-0.122,0.04-0.137,0.154c-0.015,0.115,0.029,0.204,0.129,0.228
			c0.551,0.041,0.857,0.104,0.989,0.204c0.107,0.085,0.305,0.243,0.319,2.848l0.047,3.425l-6.385-6.831
			c-0.034-0.058-0.105-0.091-0.194-0.091c-0.141,0-0.24,0.069-0.24,0.175c0.052,0.837,0.062,1.777,0.072,2.685l0.034,2.569
			c0.027,2.6-0.123,2.754-0.186,2.821c-0.126,0.103-0.428,0.178-0.932,0.23c-0.083,0.016-0.131,0.102-0.12,0.214
			c0.011,0.122,0.083,0.165,0.14,0.165h3.045c0.083,0,0.14-0.08,0.14-0.199c0-0.125-0.07-0.182-0.136-0.182
			c-0.364-0.014-0.82-0.146-0.901-0.201c-0.151-0.13-0.31-0.571-0.336-2.85l-0.049-3.386l6.389,6.812
			c0.044,0.045,0.113,0.07,0.188,0.07c0.038,0,0.132-0.007,0.185-0.074c0.027-0.034,0.037-0.077,0.03-0.102
			c-0.049-0.758-0.055-1.605-0.06-2.425c-0.002-0.301-0.003-0.6-0.007-0.895l-0.011-1.932c-0.014-2.611,0.135-2.758,0.199-2.822
			c0.136-0.112,0.396-0.179,0.884-0.23c0.082-0.019,0.128-0.108,0.114-0.222C195.549,10.337,195.482,10.295,195.424,10.295z"/>
		<path id="G_1_" fill="#FFFFFF" filter="url(#shadow)" d="M207.308,14.814h-3.073c-0.066,0-0.132,0.054-0.132,0.158c0,0.038,0.01,0.076,0.028,0.105
			c0.029,0.048,0.075,0.075,0.115,0.075c0.001,0,0.002,0,0.002,0l0.078,0.01c0.439,0.057,0.757,0.098,0.89,0.175
			c0.101,0.115,0.13,1.553,0.145,2.968c-0.401,0.165-0.97,0.27-1.472,0.27c-2.59,0-3.987-2.145-3.987-4.162
			c0-1.828,1.037-3.672,3.353-3.672c0.848,0,1.705,0.451,2.178,0.899c0.246,0.234,0.446,0.643,0.486,1.002
			c0.016,0.087,0.096,0.148,0.195,0.148c0.099,0,0.173-0.065,0.173-0.152c0-0.478-0.023-0.951-0.043-1.368
			c-0.01-0.204-0.019-0.39-0.024-0.543c0-0.071-0.058-0.146-0.165-0.146c-0.016,0-0.034,0.002-0.056,0.006
			c-0.168,0.04-0.434-0.022-0.782-0.11c-0.441-0.112-1.044-0.264-1.83-0.264c-3.053,0-4.65,2.305-4.65,4.582
			c0,2.411,2.109,4.373,4.7,4.373c1.042,0,2.1-0.276,2.903-0.756l0.051-0.03v-0.18c-0.02-1.943,0.016-2.806,0.112-2.881
			c0.124-0.083,0.272-0.101,0.668-0.152l0.123-0.017c0.052,0,0.098-0.026,0.125-0.071c0.017-0.028,0.026-0.062,0.026-0.099
			C207.445,14.886,207.387,14.814,207.308,14.814z"/>
	</g>
	<g id="University">
		<path id="U_2_" fill="#FFFFFF" filter="url(#shadow)" d="M225.495,10.294h-2.969c-0.056,0-0.12,0.039-0.136,0.148c-0.014,0.096,0.014,0.204,0.125,0.235
			c0.507,0.053,0.801,0.125,0.925,0.227c0.098,0.087,0.204,0.383,0.204,2.824v2.056c0,1.237-0.614,2.559-2.337,2.559
			c-1.57,0-2.624-1.088-2.624-2.707v-1.908c0-2.399,0.105-2.781,0.226-2.841c0.157-0.092,0.459-0.161,0.943-0.214
			c0.105-0.03,0.127-0.162,0.116-0.244c-0.014-0.101-0.079-0.136-0.131-0.136h-3.432c-0.054,0-0.116,0.036-0.13,0.135
			c-0.011,0.082,0.01,0.215,0.133,0.248c0.536,0.056,0.734,0.138,0.868,0.216c0.137,0.061,0.217,0.545,0.217,2.835v2.253
			c0,1.85,1.478,3.193,3.514,3.193c2.238,0,3.445-1.659,3.445-3.22v-2.226c0-2.324,0.097-2.731,0.204-2.825
			c0.116-0.107,0.379-0.176,0.863-0.228c0.084-0.019,0.133-0.104,0.122-0.212C225.628,10.36,225.571,10.294,225.495,10.294z"/>
		<path id="N_1_" fill="#FFFFFF" filter="url(#shadow)" d="M237.939,10.294h-3.168c-0.075,0-0.132,0.066-0.143,0.168c-0.012,0.108,0.036,0.194,0.135,0.215
			c0.545,0.042,0.847,0.104,0.976,0.201c0.107,0.09,0.307,0.256,0.319,2.852l0.05,3.247l-6.351-6.657
			c-0.034-0.059-0.109-0.09-0.22-0.09c-0.056,0-0.191,0.008-0.25,0.081l-0.032,0.052l0.002,0.041
			c0.053,0.839,0.063,1.782,0.073,2.693l0.034,2.563c0.024,2.614-0.125,2.76-0.189,2.824c-0.124,0.101-0.435,0.179-0.929,0.231
			c-0.071,0.011-0.138,0.078-0.129,0.201c0.009,0.107,0.067,0.179,0.146,0.179h3.14c0.1,0,0.145-0.106,0.145-0.206
			c0-0.036-0.007-0.069-0.02-0.096c-0.025-0.05-0.071-0.08-0.12-0.08c-0.367-0.016-0.81-0.148-0.897-0.207
			c-0.156-0.119-0.304-0.548-0.328-2.848l-0.05-3.205l6.353,6.636c0.057,0.058,0.147,0.07,0.213,0.07
			c0.164,0,0.269-0.066,0.269-0.176c-0.066-1.032-0.066-2.198-0.066-3.325l-0.011-1.933c-0.023-2.306,0.083-2.719,0.204-2.824
			c0.117-0.107,0.381-0.177,0.868-0.227c0.083-0.019,0.132-0.105,0.119-0.213C238.071,10.36,238.014,10.294,237.939,10.294z"/>
		<path id="I_1_" fill="#FFFFFF" filter="url(#shadow)" d="M244.802,18.715c-0.604-0.062-0.859-0.151-0.97-0.217c-0.149-0.08-0.235-0.57-0.235-2.837
			v-1.933c0-2.267,0.092-2.773,0.239-2.84c0.105-0.061,0.356-0.146,0.98-0.213c0.087-0.02,0.139-0.114,0.126-0.229
			c-0.012-0.112-0.081-0.152-0.136-0.152h-3.58c-0.054,0-0.116,0.036-0.13,0.135c-0.011,0.082,0.01,0.215,0.133,0.248
			c0.657,0.069,0.894,0.161,0.984,0.214c0.132,0.064,0.22,0.571,0.22,2.837v1.933c0,2.256-0.087,2.759-0.228,2.839
			c-0.085,0.052-0.325,0.147-0.986,0.215c-0.1,0.02-0.135,0.135-0.125,0.233c0.011,0.109,0.078,0.147,0.132,0.147h3.58
			c0.057,0,0.128-0.043,0.137-0.162C244.951,18.818,244.898,18.73,244.802,18.715z"/>
		<path id="V" fill="#FFFFFF" filter="url(#shadow)" d="M256.263,10.294h-2.718c-0.076,0-0.132,0.066-0.144,0.167c-0.011,0.109,0.037,0.195,0.133,0.216
			c0.61,0.061,0.688,0.203,0.688,0.32c0,0.398-0.272,1.278-0.831,2.692l-1.399,3.55l-1.347-3.552
			c-0.647-1.564-0.961-2.466-0.961-2.758c0-0.122,0.211-0.203,0.675-0.256c0.084-0.019,0.132-0.105,0.119-0.215
			c-0.011-0.101-0.068-0.166-0.143-0.166h-3.116c-0.027,0-0.115,0.011-0.135,0.148c-0.017,0.117,0.025,0.207,0.124,0.235
			c0.421,0.043,0.661,0.108,0.83,0.223c0.195,0.125,0.433,0.551,1.392,2.868l0.78,1.933c0.485,1.196,0.849,2.153,1.257,3.294
			c0.036,0.127,0.22,0.146,0.326,0.146c0.102,0,0.281-0.017,0.336-0.14c0.291-0.844,0.661-1.781,1.017-2.687l1.01-2.546
			c1.036-2.585,1.273-2.77,1.383-2.857c0.165-0.12,0.331-0.193,0.75-0.237c0.093-0.026,0.122-0.134,0.109-0.229
			C256.385,10.333,256.319,10.294,256.263,10.294z"/>
		<path id="E" fill="#FFFFFF" filter="url(#shadow)" d="M264.804,17.122c-0.04-0.048-0.113-0.08-0.182-0.08c-0.085,0-0.15,0.052-0.16,0.119
			c-0.104,0.397-0.232,0.673-0.399,0.867c-0.24,0.253-0.728,0.38-1.451,0.38c-0.785,0-1.018-0.083-1.143-0.223
			c-0.099-0.098-0.265-0.558-0.265-2.526v-0.796h0.971c0.927,0,1.098,0.094,1.191,0.189c0.098,0.085,0.164,0.308,0.164,0.556
			c0,0.022,0.007,0.096,0.104,0.129c0.038,0.013,0.077,0.016,0.104,0.016c0.177,0,0.186-0.11,0.186-0.132
			c0-0.486,0.017-0.844,0.036-1.224c0.01-0.213,0.02-0.436,0.029-0.7c0-0.084-0.08-0.138-0.204-0.138
			c-0.142,0-0.178,0.077-0.189,0.121c-0.064,0.383-0.14,0.538-1.41,0.538h-0.984v-1.819c0-0.684,0.011-1.189,0.029-1.399
			c0.195-0.011,0.61-0.021,1.047-0.021c0.848,0,1.284,0.094,1.503,0.325c0.139,0.151,0.199,0.379,0.199,0.762
			c0,0.061,0.034,0.114,0.092,0.146c0.036,0.02,0.082,0.032,0.125,0.032c0.112,0,0.163-0.071,0.162-0.123
			c0.071-0.547,0.105-0.977,0.133-1.358c0.009-0.119,0.018-0.232,0.028-0.351c0-0.076-0.065-0.157-0.197-0.157
			c-0.001,0-0.002,0-0.002,0c-0.385,0.052-0.81,0.065-1.975,0.065c-0.867,0-2.401-0.012-3.419-0.027
			c-0.052,0-0.117,0.036-0.131,0.136c-0.011,0.081,0.009,0.213,0.132,0.247c0.546,0.056,0.743,0.134,0.881,0.214
			c0.114,0.056,0.22,0.439,0.22,2.837v1.933c0,2.254-0.087,2.758-0.226,2.839c-0.133,0.079-0.331,0.159-0.884,0.216
			c-0.099,0.02-0.133,0.134-0.123,0.231c0.011,0.11,0.078,0.148,0.134,0.148c0.308-0.004,0.561-0.008,0.791-0.012
			c0.472-0.007,0.85-0.014,1.419-0.014c0.6,0,1.117,0.011,1.591,0.021c0.406,0.008,0.782,0.016,1.154,0.016
			c0.337,0,0.551-0.092,0.674-0.29c0.137-0.236,0.236-1.001,0.277-1.571C264.846,17.203,264.834,17.158,264.804,17.122z"/>
		<path id="R_1_" fill="#FFFFFF" filter="url(#shadow)" d="M277.381,18.728c-0.027-0.124-0.111-0.133-0.154-0.134c-0.085,0.013-0.256,0.013-0.369,0.013
			c-0.883,0-1.979-1.075-3.659-3.59c0.999-0.646,1.547-1.534,1.547-2.51c0-1.066-0.941-2.213-3.007-2.213
			c-0.304,0-0.594,0.007-0.873,0.014c-0.254,0.007-0.498,0.013-0.732,0.013c-0.235,0-0.495-0.006-0.768-0.013
			c-0.298-0.007-0.611-0.014-0.917-0.014c-0.057,0-0.123,0.04-0.135,0.154c-0.012,0.116,0.038,0.208,0.139,0.229
			c0.533,0.056,0.728,0.134,0.868,0.215c0.133,0.061,0.216,0.556,0.216,2.836v1.933c0,2.285-0.078,2.76-0.226,2.839
			c-0.133,0.079-0.329,0.159-0.864,0.215c-0.089,0.014-0.143,0.101-0.134,0.216c0.01,0.121,0.079,0.164,0.136,0.164h3.606
			c0.055,0,0.123-0.039,0.133-0.149c0.009-0.098-0.026-0.212-0.137-0.232c-0.386-0.035-0.92-0.096-1.111-0.215
			c-0.138-0.079-0.224-0.582-0.224-2.839v-0.258c0.526,0.025,0.861,0.028,1.398,0.009c1.047,1.776,1.763,2.701,2.467,3.189
			c0.527,0.35,0.989,0.468,1.835,0.468c0.306,0,0.571-0.011,0.893-0.076C277.426,18.942,277.383,18.737,277.381,18.728z
			 M273.425,13.012c0,0.891-0.484,1.79-1.565,1.79c-0.754,0-0.994-0.117-1.062-0.179c-0.044-0.051-0.078-0.148-0.078-0.895
			c0-2.382,0.174-2.677,0.172-2.677c0.052-0.046,0.393-0.135,0.835-0.135C273.204,10.916,273.425,12.229,273.425,13.012z"/>
		<path id="S" fill="#FFFFFF" filter="url(#shadow)" d="M282.213,13.909c-0.825-0.582-1.604-1.132-1.604-1.851c0-0.749,0.505-1.233,1.288-1.233
			c0.44,0,0.822,0.157,1.107,0.458c0.242,0.24,0.423,0.662,0.459,1.065c0,0.057,0.034,0.108,0.09,0.134
			c0.04,0.019,0.083,0.023,0.112,0.023c0.098,0,0.171-0.043,0.195-0.138c0.018-0.491,0.011-0.935,0.005-1.327
			c-0.002-0.169-0.005-0.326-0.005-0.468c0-0.099-0.101-0.169-0.211-0.141c-0.189,0.045-0.342,0.004-0.555-0.064
			c-0.236-0.075-0.561-0.178-1.103-0.178c-1.201,0-2.477,0.812-2.477,2.317c0,1.176,0.954,1.829,1.876,2.459
			c0.849,0.58,1.651,1.129,1.651,2.037c0,0.911-0.589,1.499-1.499,1.499c-0.808,0-1.309-0.466-1.588-0.857
			c-0.204-0.287-0.354-0.745-0.391-1.186c0-0.096-0.086-0.167-0.204-0.167c-0.11,0-0.189,0.064-0.188,0.141
			c-0.074,0.735-0.064,1.427,0.029,1.852c0.055,0.226,0.885,0.877,2.169,0.877c1.885,0,2.901-1.338,2.901-2.596
			C284.269,15.359,283.177,14.588,282.213,13.909z"/>
		<path id="I_2_" fill="#FFFFFF" filter="url(#shadow)" d="M291.67,18.715c-0.606-0.062-0.86-0.151-0.97-0.217c-0.15-0.08-0.235-0.57-0.235-2.837v-1.933
			c0-2.267,0.092-2.773,0.238-2.841c0.104-0.06,0.356-0.146,0.981-0.213c0.087-0.02,0.138-0.114,0.126-0.229
			c-0.013-0.112-0.081-0.152-0.136-0.152h-3.582c-0.018,0-0.11,0.007-0.128,0.132c-0.012,0.083,0.007,0.216,0.131,0.251
			c0.622,0.065,0.876,0.15,0.986,0.214c0.114,0.056,0.22,0.439,0.22,2.837v1.933c0,2.254-0.087,2.758-0.226,2.839
			c-0.087,0.052-0.329,0.147-0.99,0.216c-0.098,0.02-0.132,0.137-0.122,0.235c0.015,0.137,0.11,0.144,0.129,0.144h3.582
			c0.056,0,0.127-0.043,0.136-0.163C291.819,18.817,291.765,18.73,291.67,18.715z"/>
		<path id="T" fill="#FFFFFF" filter="url(#shadow)" d="M302.481,10.174c-0.016,0-0.034,0.002-0.061,0.009c-0.247,0.085-0.883,0.164-3.835,0.164
			c-1.952,0-3.226-0.047-3.805-0.142c-0.111,0-0.198,0.068-0.198,0.15c-0.029,0.489-0.117,1.276-0.186,1.863
			c0,0.027,0.01,0.095,0.101,0.137c0.038,0.017,0.084,0.027,0.126,0.027c0.108,0,0.157-0.066,0.167-0.123
			c0.047-0.284,0.17-0.673,0.364-0.839c0.332-0.294,0.979-0.413,2.236-0.413c0.241,0,0.443,0.009,0.576,0.02
			C298,11.289,298,12.073,298,12.427v3.233c0,2.257-0.086,2.759-0.224,2.838c-0.115,0.065-0.379,0.154-0.989,0.217
			c-0.1,0.02-0.135,0.136-0.125,0.235c0.014,0.137,0.11,0.145,0.13,0.145h3.583c0.019,0,0.115-0.007,0.129-0.144
			c0.01-0.099-0.024-0.215-0.133-0.237c-0.598-0.061-0.863-0.151-0.979-0.215c-0.14-0.081-0.227-0.584-0.227-2.839v-3.234
			c0-0.323,0-1.129,0.035-1.399c0.122-0.011,0.276-0.02,0.509-0.02c1.206,0,1.953,0.137,2.218,0.407
			c0.131,0.139,0.209,0.439,0.209,0.803c0,0.094,0.087,0.157,0.215,0.157c0.133,0,0.181-0.071,0.18-0.12
			c0.092-0.78,0.107-1.537,0.109-1.92C302.64,10.241,302.573,10.174,302.481,10.174z"/>
		<path id="Y_2_" fill="#FFFFFF" filter="url(#shadow)" d="M313.812,10.281h-2.718c-0.099,0-0.145,0.107-0.145,0.206c0,0.036,0.007,0.068,0.02,0.095
			c0.024,0.049,0.07,0.079,0.115,0.079h0.001c0.471,0.038,0.625,0.103,0.649,0.115c0.147,0.105-0.316,0.911-0.73,1.569l-1.272,2.08
			l-1.243-2.107c-0.226-0.349-0.912-1.412-0.894-1.551c0.053-0.031,0.199-0.087,0.568-0.105c0.054,0,0.101-0.03,0.125-0.081
			c0.014-0.027,0.02-0.06,0.02-0.097c0-0.12-0.06-0.204-0.146-0.204h-2.983c-0.084,0-0.139,0.078-0.139,0.199
			c0,0.134,0.075,0.182,0.135,0.182c0.374,0.015,0.553,0.055,0.761,0.126c0.168,0.072,0.361,0.24,1.315,1.765l0.744,1.176
			c0.364,0.6,0.644,1.065,0.923,1.564v0.357c0,2.266-0.086,2.771-0.225,2.851c-0.109,0.064-0.366,0.153-0.988,0.215
			c-0.099,0.02-0.134,0.134-0.125,0.231c0.011,0.11,0.078,0.149,0.133,0.149h3.592c0.056,0,0.126-0.042,0.136-0.16
			c0.01-0.117-0.044-0.205-0.139-0.221c-0.596-0.061-0.863-0.151-0.979-0.214c-0.138-0.082-0.224-0.587-0.224-2.851v-0.411
			c0.292-0.503,0.609-1.021,0.91-1.509l0.718-1.178c0.941-1.566,1.177-1.681,1.289-1.735c0.189-0.08,0.437-0.128,0.795-0.154
			c0.053,0,0.101-0.029,0.125-0.079c0.014-0.027,0.02-0.059,0.02-0.096C313.957,10.387,313.912,10.281,313.812,10.281z"/>
	</g>
</g>
</svg>
