<svg version="1.1" xmlns="http://www.w3.org/2000/svg" width="380px" height="30px" viewBox="0 0 380 30" >
<defs>
  <filter id="shadow" x="-50%" y="-50%" width="200%" height="200%">
    <feOffset result="offOut" in="SourceGraphic" dx="0" dy="0" />
    <feColorMatrix result="matrixOut" in="offOut" type="matrix"
      values="0.0 0 0 0 0 0 0.098 0 0 0 0 0 0.2812 0 0 0 0 0 1 0" />
    <feGaussianBlur result="blurOut" in="matrixOut" stdDeviation="5" />
    <feBlend in="SourceGraphic" in2="blurOut" mode="normal" />
  </filter>
  
  <filter id="shadow2" x="-50%" y="-50%" width="200%" height="200%">
    <feOffset result="offOut" in="SourceGraphic" dx="0" dy="0" />
    <feColorMatrix result="matrixOut" in="offOut" type="matrix"
      values="0.0 0 0 0 0 0 0.098 0 0 0 0 0 0.28125 0 0 0 0 0 .4 0" />
    <feGaussianBlur result="blurOut" in="matrixOut" stdDeviation="3" />
    <feBlend in="SourceGraphic" in2="blurOut" mode="normal" />
  </filter>
</defs>

<g id="Monogram">
	<path id="B" fill="#FFFFFF" filter="url(#shadow2)" d="M25.131,13.944c1.076-0.454,1.621-1.367,1.621-2.719C26.751,8.934,25.273,8,21.647,8h-8.189
		l-0.124,0.021l-0.017,0.103c-0.011,0.069,0.022,0.135,0.079,0.162l0.034,0.012c0.361,0.08,0.525,0.123,0.811,0.263
		c0.154,0.08,0.18,0.211,0.18,0.566L14.419,19.64c0,0.354-0.027,0.492-0.18,0.57c-0.298,0.143-0.467,0.189-0.814,0.266l-0.123,0.044
		l0.009,0.113c0.006,0.078,0.068,0.136,0.143,0.136h8.505c4.313,0,5.218-2.048,5.218-3.765
		C27.177,15.426,26.49,14.398,25.131,13.944z M20.51,13.098h-1.852v-2.489h1.8c1.237,0,1.866,0.187,1.866,1.21
		C22.324,12.656,21.697,13.098,20.51,13.098z M22.549,16.692c0,0.938-0.727,1.414-2.161,1.414h-1.73v-2.828h1.546
		C21.303,15.278,22.549,15.278,22.549,16.692z"/>
	<path id="Y" fill="#FFFFFF" filter="url(#shadow2)" d="M42.975,8h-5.892l-0.129,0.021l-0.012,0.11c-0.006,0.059,0.02,0.114,0.064,0.143L37.032,8.3h0.051
		c0.124,0,0.251,0.006,0.325,0.083c0.056,0.058,0.081,0.16,0.075,0.301c-0.011,0.263-1.164,1.991-1.783,2.919
		c-0.256,0.384-0.472,0.708-0.602,0.914c-0.138-0.208-0.299-0.445-0.469-0.696c-0.755-1.114-1.895-2.797-1.907-3.137
		c-0.005-0.108,0.022-0.191,0.082-0.253c0.08-0.083,0.22-0.131,0.386-0.131l0.047-0.003l0.025-0.018
		c0.049-0.03,0.077-0.09,0.068-0.153L33.296,8h-6.251l-0.123,0.02l-0.017,0.103c-0.012,0.073,0.024,0.141,0.086,0.166l0.031,0.01
		c0.241,0.046,0.361,0.071,0.662,0.217c0.026,0.012,0.102,0.064,0.129,0.089c0.183,0.152,0.325,0.322,0.562,0.674l4.312,6.385
		l0.001,3.979c0,0.351-0.028,0.49-0.179,0.568c-0.296,0.142-0.463,0.191-0.817,0.267l-0.123,0.046l0.01,0.112
		c0.007,0.08,0.067,0.137,0.143,0.137h6.667c0.076,0,0.137-0.059,0.143-0.138c0.005-0.058-0.022-0.111-0.073-0.139l0.001-0.002
		l-0.042-0.017c-0.352-0.076-0.519-0.125-0.812-0.264c-0.154-0.079-0.181-0.217-0.181-0.566v-3.957l4.32-6.409
		c0.237-0.354,0.378-0.524,0.561-0.676c0.031-0.026,0.098-0.083,0.14-0.111c0.164-0.105,0.246-0.149,0.451-0.195l0.035-0.013
		c0.056-0.027,0.088-0.092,0.077-0.16L42.975,8z"/>
	<path id="U" fill="#FFFFFF" filter="url(#shadow2)" d="M58.596,8h-6.431l-0.128,0.023L52.025,8.13c-0.01,0.077,0.034,0.145,0.114,0.166
		c0.36,0.079,0.523,0.122,0.81,0.263c0.156,0.081,0.184,0.218,0.184,0.565v6.321c0,1.496-0.897,2.424-2.341,2.424
		c-1.445,0-2.343-0.928-2.343-2.424l0.001-6.318c0-0.349,0.027-0.487,0.18-0.565c0.294-0.145,0.456-0.188,0.786-0.264
		c0.021,0,0.043-0.005,0.063-0.015l0.088-0.025l-0.006-0.116C49.555,8.061,49.493,8,49.415,8h-5.971l-0.129,0.023l-0.013,0.108
		c-0.007,0.062,0.02,0.119,0.067,0.148l0.047,0.019c0.185,0.043,0.303,0.102,0.438,0.22c0.154,0.129,0.204,0.278,0.204,0.61v6.213
		c0,4.925,4.219,5.66,6.734,5.66c2.514,0,6.731-0.735,6.731-5.66V9.126c0-0.347,0.027-0.485,0.179-0.562
		c0.292-0.144,0.456-0.187,0.79-0.264l0.049-0.003l0.025-0.019c0.049-0.03,0.076-0.089,0.066-0.153L58.596,8z"/>
</g>
<g id="Logotype">
	<g id="Brigham">
		<path id="B_1_" fill="#FFFFFF" filter="url(#shadow)" d="M84.341,14.049c0.935-0.562,1.464-1.364,1.464-2.235c0-0.953-0.834-2.371-3.131-2.371
			c-0.375,0-0.646,0.009-0.902,0.018c-0.23,0.008-0.45,0.015-0.728,0.015c-0.279,0-0.586-0.007-0.907-0.016
			c-0.356-0.008-0.729-0.018-1.103-0.018c-0.068,0-0.144,0.049-0.158,0.158c-0.013,0.102,0.032,0.22,0.16,0.251
			c0.597,0.058,0.952,0.107,1.125,0.207c0.163,0.087,0.264,0.701,0.264,3.484v2.309c0,2.779-0.101,3.394-0.267,3.484
			c-0.167,0.097-0.509,0.146-1.136,0.208c-0.111,0.023-0.157,0.14-0.146,0.242c0.012,0.112,0.088,0.162,0.158,0.162
			c0.374,0,0.747-0.009,1.103-0.018c0.321-0.008,0.628-0.016,0.907-0.016s0.503,0.008,0.737,0.016
			c0.258,0.009,0.527,0.018,0.893,0.018c3.012,0,4.081-1.706,4.082-3.167C86.756,15.465,85.88,14.482,84.341,14.049z M81.658,12.623
			c0-0.57,0-2.271,0.07-2.526c0.095-0.034,0.448-0.087,0.913-0.087c0.889,0,1.79,0.728,1.791,2.12c0,1.199-0.646,1.886-1.773,1.886
			c-0.69,0-0.913-0.04-0.97-0.052C81.677,13.872,81.658,13.574,81.658,12.623z M85.349,17.18c0,1.307-0.892,2.185-2.219,2.185
			c-0.763,0-1.247-0.148-1.312-0.243c-0.017-0.022-0.16-0.275-0.16-2.387c0-0.879,0.003-1.888,0.027-2.141
			c0.098-0.011,0.335-0.024,0.798-0.024c0.807,0,1.535,0.25,2.048,0.702C85.067,15.742,85.35,16.402,85.349,17.18z"/>
		<path id="R" fill="#FFFFFF" filter="url(#shadow)" d="M101.252,19.398c-0.001,0-0.001,0-0.002,0c-0.116,0.013-0.306,0.013-0.458,0.013
			c-1.006,0-2.275-1.271-4.367-4.377c0.869-0.547,1.848-1.489,1.848-2.952c0-1.314-1.081-2.64-3.496-2.64
			c-0.363,0-0.709,0.009-1.042,0.018c-0.604,0.016-1.14,0.016-1.752,0c-0.335-0.009-0.686-0.018-1.049-0.018
			c-0.069,0-0.144,0.049-0.158,0.158c-0.013,0.102,0.032,0.219,0.16,0.25c0.626,0.062,0.879,0.111,1.04,0.205
			c0.193,0.112,0.272,1.122,0.272,3.487v2.309c0,2.361-0.079,3.371-0.273,3.484c-0.175,0.103-0.475,0.147-1.053,0.208
			c-0.11,0.023-0.157,0.14-0.146,0.241c0.012,0.112,0.088,0.163,0.159,0.163h4.143c0.084,0,0.149-0.067,0.158-0.164
			c0.009-0.102-0.046-0.221-0.172-0.242l-0.358-0.04c-0.472-0.053-0.813-0.09-0.96-0.167c-0.169-0.093-0.282-0.721-0.282-3.483
			V15.46c0.537,0.023,1.145,0.024,1.86,0.009c1.324,2.259,2.147,3.351,2.931,3.887c0.64,0.428,1.132,0.559,2.11,0.559
			c0.371,0,0.607-0.012,0.959-0.084c0.103-0.035,0.13-0.162,0.113-0.264C101.416,19.443,101.332,19.398,101.252,19.398z
			 M96.868,12.685c0,1.11-0.669,2.234-1.948,2.234c-0.832,0-1.328-0.094-1.391-0.147c-0.044-0.073-0.066-0.486-0.066-1.23
			c0-2.182,0.101-3.207,0.147-3.378c0.127-0.041,0.64-0.106,1.153-0.106C96.315,10.057,96.868,11.415,96.868,12.685z"/>
		<path id="I" fill="#FFFFFF" filter="url(#shadow)" d="M107.75,19.542c-0.578-0.06-1-0.109-1.167-0.205c-0.193-0.115-0.272-1.125-0.272-3.485v-2.309
			c0-2.364,0.079-3.375,0.271-3.486c0.174-0.1,0.632-0.152,1.186-0.208c0.11-0.027,0.156-0.147,0.144-0.248
			c-0.014-0.109-0.089-0.158-0.157-0.158h-4.116c-0.067,0-0.145,0.05-0.155,0.159c-0.01,0.103,0.044,0.224,0.178,0.25
			c0.526,0.052,0.975,0.104,1.154,0.207c0.165,0.087,0.268,0.701,0.268,3.484v2.309c0,2.779-0.103,3.394-0.271,3.484
			c-0.169,0.099-0.584,0.147-1.158,0.207c-0.122,0.021-0.179,0.14-0.17,0.242c0.009,0.112,0.087,0.163,0.156,0.163h4.116
			c0.069,0,0.145-0.05,0.157-0.162C107.921,19.684,107.875,19.567,107.75,19.542z"/>
		<path id="G" fill="#FFFFFF" filter="url(#shadow)" d="M121.917,14.842h-3.671c-0.079,0-0.158,0.064-0.158,0.188c0,0.045,0.012,0.09,0.032,0.125
			c0.034,0.058,0.104,0.095,0.14,0.09l0.087,0.011c0.528,0.068,0.91,0.118,1.07,0.211c0.123,0.138,0.156,1.856,0.172,3.544
			c-0.476,0.197-1.154,0.322-1.756,0.322c-3.094,0-4.764-2.562-4.764-4.971c0-2.183,1.238-4.386,4.003-4.386
			c1.013,0,2.039,0.54,2.605,1.073c0.296,0.283,0.533,0.771,0.578,1.196c0.018,0.105,0.113,0.178,0.231,0.178
			s0.208-0.078,0.208-0.181c0-0.565-0.027-1.125-0.05-1.618c-0.012-0.25-0.023-0.477-0.028-0.664c0-0.084-0.069-0.174-0.198-0.174
			c-0.019,0-0.04,0.002-0.068,0.008c-0.205,0.047-0.516-0.027-0.93-0.132c-0.527-0.133-1.249-0.315-2.189-0.315
			c-3.646,0-5.553,2.753-5.553,5.473c0,2.88,2.519,5.223,5.616,5.223c1.246,0,2.509-0.329,3.466-0.903l0.061-0.037V18.89
			c-0.023-2.322,0.019-3.353,0.135-3.441c0.147-0.098,0.324-0.121,0.794-0.181l0.151-0.021c0.062,0,0.117-0.031,0.149-0.085
			c0.02-0.033,0.03-0.074,0.03-0.118C122.081,14.927,122.012,14.842,121.917,14.842z"/>
		<path id="H" fill="#FFFFFF" filter="url(#shadow)" d="M137.089,19.542c-0.622-0.064-0.866-0.113-1.041-0.205c-0.141-0.083-0.271-0.562-0.271-3.485
			v-2.309c0-2.366,0.078-3.376,0.267-3.484c0.185-0.098,0.429-0.146,1.063-0.21c0.11-0.027,0.156-0.147,0.144-0.247
			c-0.014-0.109-0.089-0.158-0.158-0.158h-3.848c-0.067,0-0.142,0.048-0.155,0.156c-0.013,0.103,0.031,0.221,0.16,0.252
			c0.616,0.061,0.86,0.109,1.041,0.205c0.192,0.11,0.27,1.12,0.27,3.486v0.712h-5.904v-0.712c0-2.782,0.102-3.396,0.269-3.486
			c0.167-0.095,0.416-0.145,1.044-0.208c0.11-0.027,0.156-0.147,0.144-0.248c-0.014-0.109-0.089-0.158-0.157-0.158h-3.846
			c-0.068,0-0.142,0.048-0.155,0.156c-0.013,0.1,0.033,0.222,0.161,0.252c0.626,0.062,0.878,0.112,1.039,0.205
			c0.192,0.11,0.27,1.12,0.27,3.486v2.309c0,2.362-0.079,3.372-0.271,3.484c-0.175,0.102-0.474,0.147-1.052,0.208
			c-0.112,0.023-0.16,0.14-0.149,0.242c0.012,0.112,0.087,0.162,0.157,0.162h3.846c0.069,0,0.145-0.05,0.157-0.162
			c0.011-0.103-0.036-0.219-0.161-0.244c-0.623-0.064-0.863-0.112-1.028-0.207c-0.165-0.091-0.267-0.705-0.267-3.483v-0.937h5.904
			v0.937c0,2.923-0.13,3.402-0.267,3.482c-0.18,0.095-0.424,0.144-1.059,0.21c-0.111,0.023-0.158,0.14-0.147,0.242
			c0.012,0.112,0.087,0.162,0.157,0.162h3.848c0.07,0,0.146-0.05,0.157-0.162C137.261,19.684,137.213,19.567,137.089,19.542z"/>
		<path id="A" fill="#FFFFFF" filter="url(#shadow)" d="M149.987,19.542l-0.092-0.01c-0.375-0.04-0.582-0.062-0.803-0.192
			c-0.202-0.132-0.471-0.651-1.612-3.533l-0.886-2.31c-0.544-1.381-0.951-2.485-1.45-3.929c-0.058-0.205-0.35-0.23-0.446-0.003
			c-0.327,1.06-0.763,2.238-1.184,3.377l-1.043,2.866c-1.062,2.9-1.386,3.377-1.541,3.484c-0.207,0.152-0.455,0.2-0.942,0.25
			c-0.099,0.017-0.162,0.104-0.152,0.214c0.009,0.111,0.082,0.191,0.173,0.191h2.973c0.087,0,0.153-0.072,0.165-0.179
			c0.012-0.113-0.045-0.206-0.153-0.228c-0.624-0.06-0.9-0.093-0.9-0.258c0-0.32,0.33-1.354,1.071-3.357h3.05
			c0.886,2.215,1.231,3.18,1.231,3.438c0,0.104-0.363,0.138-0.655,0.165l-0.136,0.014c-0.094,0.021-0.15,0.114-0.138,0.229
			c0.011,0.105,0.078,0.176,0.165,0.176h3.293c0.088,0,0.154-0.071,0.166-0.178C150.151,19.657,150.093,19.563,149.987,19.542z
			 M145.978,15.283h-2.584l1.279-3.546L145.978,15.283z"/>
		<path id="M" fill="#FFFFFF" filter="url(#shadow)" d="M166.142,19.543c-0.635-0.064-0.883-0.112-1.064-0.209c-0.175-0.089-0.292-0.774-0.595-3.494
			l-0.237-2.308c-0.146-1.459-0.223-2.588-0.301-3.929c0-0.112-0.102-0.197-0.237-0.197c-0.101,0-0.177,0.05-0.193,0.111
			l-4.005,8.564l-4.329-8.567c-0.034-0.068-0.108-0.109-0.198-0.109c-0.125,0-0.224,0.073-0.244,0.194
			c-0.026,0.976-0.091,2.057-0.154,3.103l-0.211,3.141c-0.153,2.162-0.32,3.293-0.515,3.459c-0.147,0.137-0.523,0.184-1.093,0.242
			c-0.113,0.023-0.171,0.15-0.161,0.255c0.011,0.103,0.086,0.149,0.151,0.149h3.34c0.088,0,0.155-0.071,0.166-0.177
			c0.012-0.114-0.045-0.208-0.152-0.229l-0.123-0.014c-0.333-0.035-0.711-0.076-0.829-0.169c-0.147-0.109-0.312-0.599-0.042-3.577
			l0.219-3.127l3.716,7.275c0.045,0.06,0.114,0.094,0.19,0.094c0.079,0,0.146-0.036,0.179-0.1l3.445-7.33l0.323,3.271
			c0.16,1.438,0.349,3.367,0.138,3.513c-0.103,0.084-0.368,0.111-0.674,0.144l-0.202,0.021c-0.098,0.017-0.161,0.105-0.151,0.215
			c0.009,0.11,0.082,0.19,0.172,0.19c0.742,0,2.944,0,3.704,0.001c0.077,0,0.137-0.058,0.146-0.139
			C166.333,19.719,166.279,19.572,166.142,19.543z"/>
	</g>
	<g id="Young">
		<path id="Y_1_" fill="#FFFFFF" filter="url(#shadow)" d="M185.103,9.428h-3.006c-0.097,0-0.168,0.089-0.168,0.212c0,0.127,0.084,0.194,0.158,0.194
			c0,0,0,0,0,0c0.33,0.024,0.827,0.061,0.916,0.104c0.037,0.027,0.073,0.25-0.999,1.955l-1.633,2.73l-1.456-2.46
			c-0.728-1.312-1.152-2.086-1.179-2.264c0.106-0.039,0.401-0.05,0.621-0.058l0.177-0.007c0.083,0,0.167-0.067,0.167-0.196
			c0-0.123-0.07-0.211-0.167-0.211h-3.385c-0.108,0-0.172,0.111-0.172,0.218c0,0.042,0.011,0.082,0.031,0.113
			c0.031,0.048,0.083,0.076,0.132,0.076c0,0,0,0,0.001,0c0.097,0.007,0.184,0.012,0.262,0.016c0.275,0.015,0.441,0.024,0.639,0.106
			c0.151,0.053,0.311,0.307,1.077,1.527l1.294,2.059c0.409,0.671,0.753,1.247,1.104,1.866v0.426c0,2.938-0.131,3.419-0.271,3.501
			c-0.166,0.096-0.588,0.146-1.18,0.208c-0.112,0.023-0.161,0.139-0.15,0.241c0.011,0.112,0.09,0.163,0.158,0.163h4.116
			c0.069,0,0.145-0.05,0.157-0.161c0.011-0.103-0.036-0.219-0.16-0.245c-0.579-0.06-1.001-0.109-1.168-0.205
			c-0.193-0.114-0.272-1.129-0.272-3.502v-0.488c0.33-0.567,0.693-1.157,1.045-1.729l0.901-1.485
			c1.062-1.757,1.314-2.099,1.442-2.164c0.199-0.079,0.479-0.099,0.868-0.126l0.101-0.007c0.083,0,0.167-0.067,0.167-0.195
			C185.27,9.517,185.2,9.428,185.103,9.428z"/>
		<path id="O" fill="#FFFFFF" filter="url(#shadow)" d="M193.203,9.348c-2.647,0-5.505,2.092-5.505,5.473c0,2.929,2.321,5.223,5.283,5.223
			c1.549,0,2.969-0.602,3.997-1.694c0.958-1.017,1.508-2.395,1.507-3.781C198.485,11.641,196.165,9.348,193.203,9.348z
			 M197.098,15.029c0,2.151-1.175,4.321-3.799,4.321c-2.521,0-4.213-2.578-4.213-4.987c0-2.151,1.18-4.321,3.816-4.321
			C195.412,10.042,197.098,12.621,197.098,15.029z"/>
		<path id="U_1_" fill="#FFFFFF" filter="url(#shadow)" d="M212.434,9.443h-3.371c-0.089,0-0.161,0.079-0.172,0.187c-0.011,0.11,0.049,0.2,0.159,0.222
			c0.551,0.054,0.952,0.103,1.104,0.242c0.154,0.129,0.226,1.226,0.226,3.449v2.577c0,1.856-1.125,3.056-2.866,3.056
			c-1.951,0-3.212-1.268-3.212-3.229v-2.404c0-2.784,0.101-3.397,0.268-3.486c0.173-0.099,0.517-0.148,1.104-0.208
			c0.101-0.021,0.164-0.12,0.152-0.235c-0.011-0.101-0.078-0.171-0.164-0.171h-3.924c-0.067,0-0.142,0.048-0.155,0.156
			c-0.014,0.103,0.03,0.221,0.159,0.253c0.622,0.06,0.876,0.11,1.041,0.205c0.192,0.11,0.271,1.12,0.271,3.486v2.691
			c0,2.243,1.684,3.81,4.095,3.81c2.619,0,4.032-1.981,4.032-3.846v-2.655c0-2.191,0.074-3.319,0.231-3.453
			c0.146-0.133,0.438-0.182,1.054-0.242c0.094-0.023,0.149-0.119,0.136-0.232C212.587,9.512,212.52,9.443,212.434,9.443z"/>
		<path id="N" fill="#FFFFFF" filter="url(#shadow)" d="M227.642,9.444h-3.671c-0.067,0-0.146,0.048-0.163,0.184c-0.018,0.138,0.034,0.243,0.154,0.272
			c0.658,0.049,1.023,0.125,1.182,0.243c0.128,0.102,0.364,0.29,0.381,3.402l0.057,4.091l-7.626-8.159
			c-0.04-0.069-0.125-0.109-0.231-0.109c-0.169,0-0.286,0.083-0.286,0.209c0.062,1,0.074,2.122,0.086,3.208l0.04,3.068
			c0.032,3.105-0.147,3.29-0.223,3.369c-0.15,0.123-0.512,0.213-1.113,0.274c-0.099,0.02-0.156,0.122-0.144,0.256
			c0.014,0.146,0.099,0.197,0.167,0.197h3.637c0.1,0,0.167-0.096,0.167-0.238c0-0.149-0.084-0.217-0.162-0.217
			c-0.435-0.017-0.979-0.175-1.076-0.24c-0.181-0.155-0.37-0.682-0.401-3.404l-0.059-4.045l7.632,8.137
			c0.053,0.054,0.135,0.084,0.225,0.084c0.045,0,0.157-0.008,0.221-0.088c0.032-0.04,0.044-0.092,0.036-0.122
			c-0.059-0.905-0.065-1.917-0.071-2.896c-0.002-0.359-0.004-0.717-0.009-1.069l-0.014-2.308c-0.017-3.119,0.161-3.294,0.238-3.371
			c0.162-0.133,0.473-0.214,1.056-0.274c0.098-0.023,0.153-0.129,0.137-0.265C227.791,9.493,227.711,9.444,227.642,9.444z"/>
		<path id="G_1_" fill="#FFFFFF" filter="url(#shadow)" d="M241.837,14.842h-3.671c-0.079,0-0.158,0.065-0.158,0.188c0,0.045,0.012,0.09,0.033,0.126
			c0.034,0.057,0.09,0.09,0.138,0.09c0.001,0,0.002,0,0.002,0l0.094,0.012c0.524,0.068,0.904,0.117,1.063,0.209
			c0.121,0.138,0.155,1.855,0.173,3.545c-0.479,0.197-1.158,0.322-1.759,0.322c-3.094,0-4.763-2.562-4.763-4.971
			c0-2.183,1.238-4.386,4.005-4.386c1.013,0,2.036,0.539,2.602,1.073c0.294,0.28,0.532,0.769,0.58,1.197
			c0.02,0.104,0.115,0.177,0.232,0.177c0.118,0,0.207-0.078,0.207-0.181c0-0.571-0.027-1.136-0.052-1.634
			c-0.012-0.244-0.022-0.466-0.028-0.648c0-0.084-0.069-0.174-0.197-0.174c-0.019,0-0.04,0.002-0.067,0.007
			c-0.201,0.048-0.519-0.026-0.934-0.131c-0.526-0.133-1.247-0.315-2.186-0.315c-3.646,0-5.554,2.753-5.554,5.473
			c0,2.88,2.519,5.223,5.614,5.223c1.244,0,2.508-0.329,3.468-0.903l0.061-0.036V18.89c-0.023-2.32,0.02-3.352,0.134-3.441
			c0.148-0.099,0.325-0.121,0.798-0.182l0.147-0.02c0.062,0,0.117-0.031,0.149-0.085c0.021-0.033,0.031-0.074,0.031-0.118
			C242,14.927,241.932,14.842,241.837,14.842z"/>
	</g>
	<g id="University">
		<path id="U_2_" fill="#FFFFFF" filter="url(#shadow)" d="M263.56,9.442h-3.547c-0.066,0-0.144,0.046-0.162,0.177c-0.017,0.114,0.017,0.244,0.149,0.281
			c0.605,0.063,0.957,0.15,1.104,0.271c0.117,0.104,0.243,0.458,0.243,3.373V16c0,1.478-0.733,3.057-2.792,3.057
			c-1.875,0-3.135-1.3-3.135-3.233v-2.279c0-2.865,0.126-3.322,0.271-3.393c0.188-0.11,0.549-0.192,1.126-0.255
			c0.126-0.036,0.151-0.193,0.139-0.291c-0.017-0.12-0.095-0.163-0.156-0.163h-4.1c-0.064,0-0.139,0.042-0.155,0.161
			c-0.014,0.098,0.012,0.256,0.159,0.296c0.641,0.067,0.877,0.165,1.037,0.258c0.164,0.073,0.259,0.651,0.259,3.387v2.691
			c0,2.21,1.766,3.813,4.197,3.813c2.673,0,4.115-1.981,4.115-3.846v-2.659c0-2.775,0.116-3.262,0.244-3.375
			c0.139-0.127,0.452-0.21,1.03-0.272c0.101-0.022,0.159-0.125,0.146-0.253C263.719,9.521,263.651,9.442,263.56,9.442z"/>
		<path id="N_1_" fill="#FFFFFF" filter="url(#shadow)" d="M278.424,9.443h-3.784c-0.09,0-0.157,0.079-0.171,0.201c-0.015,0.129,0.043,0.231,0.161,0.257
			c0.651,0.05,1.012,0.125,1.166,0.24c0.128,0.107,0.367,0.306,0.381,3.407l0.06,3.879l-7.586-7.951
			c-0.041-0.071-0.13-0.107-0.263-0.107c-0.066,0-0.228,0.009-0.299,0.097l-0.038,0.062l0.003,0.049
			c0.063,1.002,0.075,2.128,0.087,3.216l0.041,3.062c0.028,3.122-0.149,3.297-0.226,3.373c-0.148,0.121-0.52,0.214-1.109,0.275
			c-0.085,0.013-0.165,0.093-0.154,0.24c0.011,0.128,0.08,0.214,0.174,0.214h3.751c0.119,0,0.173-0.127,0.173-0.246
			c0-0.043-0.008-0.082-0.023-0.114c-0.029-0.06-0.085-0.096-0.144-0.096c-0.438-0.02-0.968-0.177-1.071-0.247
			c-0.187-0.143-0.363-0.654-0.392-3.401l-0.06-3.828l7.589,7.926c0.068,0.069,0.176,0.084,0.254,0.084
			c0.195,0,0.321-0.079,0.321-0.21c-0.079-1.232-0.079-2.625-0.079-3.972l-0.014-2.309c-0.027-2.754,0.1-3.248,0.243-3.373
			c0.14-0.128,0.455-0.211,1.037-0.271c0.1-0.023,0.157-0.125,0.143-0.255C278.581,9.521,278.514,9.443,278.424,9.443z"/>
		<path id="I_1_" fill="#FFFFFF" filter="url(#shadow)" d="M286.621,19.501c-0.722-0.074-1.026-0.181-1.159-0.259c-0.178-0.096-0.281-0.681-0.281-3.389
			v-2.309c0-2.708,0.109-3.312,0.285-3.393c0.125-0.072,0.426-0.174,1.171-0.254c0.104-0.024,0.166-0.137,0.15-0.274
			c-0.015-0.134-0.097-0.181-0.162-0.181h-4.276c-0.064,0-0.139,0.042-0.155,0.161c-0.014,0.098,0.012,0.256,0.159,0.296
			c0.784,0.083,1.067,0.193,1.176,0.256c0.158,0.077,0.263,0.682,0.263,3.389v2.309c0,2.694-0.104,3.295-0.272,3.392
			c-0.102,0.062-0.389,0.176-1.178,0.257c-0.119,0.023-0.161,0.161-0.149,0.278c0.013,0.13,0.093,0.176,0.157,0.176h4.276
			c0.068,0,0.152-0.051,0.163-0.193C286.8,19.624,286.735,19.519,286.621,19.501z"/>
		<path id="V" fill="#FFFFFF" filter="url(#shadow)" d="M300.311,9.442h-3.246c-0.091,0-0.157,0.079-0.172,0.2c-0.014,0.13,0.044,0.232,0.159,0.258
			c0.729,0.072,0.822,0.243,0.822,0.383c0,0.475-0.325,1.527-0.993,3.216l-1.671,4.24l-1.608-4.242
			c-0.772-1.868-1.148-2.946-1.148-3.294c0-0.146,0.252-0.242,0.807-0.306c0.101-0.023,0.158-0.126,0.143-0.256
			c-0.014-0.121-0.081-0.198-0.171-0.198h-3.722c-0.032,0-0.138,0.013-0.161,0.177c-0.021,0.139,0.029,0.248,0.148,0.28
			c0.503,0.052,0.79,0.128,0.991,0.266c0.233,0.149,0.517,0.658,1.663,3.425l0.932,2.309c0.579,1.429,1.015,2.571,1.502,3.935
			c0.043,0.151,0.263,0.174,0.39,0.174c0.122,0,0.336-0.021,0.401-0.167c0.348-1.008,0.789-2.127,1.215-3.209l1.206-3.042
			c1.237-3.088,1.521-3.309,1.652-3.412c0.197-0.144,0.396-0.231,0.896-0.283c0.111-0.031,0.146-0.16,0.13-0.273
			C300.457,9.489,300.378,9.442,300.311,9.442z"/>
		<path id="E" fill="#FFFFFF" filter="url(#shadow)" d="M310.513,17.598c-0.048-0.058-0.135-0.096-0.217-0.096c-0.102,0-0.18,0.062-0.191,0.142
			c-0.124,0.474-0.277,0.804-0.477,1.036c-0.286,0.302-0.869,0.454-1.733,0.454c-0.938,0-1.216-0.1-1.365-0.267
			c-0.118-0.117-0.316-0.666-0.316-3.017V14.9h1.16c1.107,0,1.312,0.113,1.423,0.226c0.117,0.101,0.196,0.368,0.196,0.665
			c0,0.026,0.009,0.115,0.124,0.154c0.045,0.016,0.092,0.019,0.124,0.019c0.212,0,0.223-0.131,0.223-0.157
			c0-0.58,0.021-1.008,0.043-1.461c0.012-0.254,0.024-0.521,0.035-0.836c0-0.1-0.096-0.165-0.243-0.165
			c-0.17,0-0.213,0.092-0.226,0.144c-0.076,0.457-0.167,0.643-1.684,0.643h-1.175v-2.173c0-0.817,0.013-1.42,0.035-1.671
			c0.232-0.013,0.729-0.025,1.251-0.025c1.013,0,1.533,0.113,1.795,0.389c0.166,0.18,0.237,0.453,0.237,0.91
			c0,0.072,0.04,0.136,0.109,0.174c0.043,0.024,0.098,0.038,0.149,0.038c0.134,0,0.194-0.084,0.193-0.146
			c0.085-0.653,0.125-1.167,0.159-1.622c0.011-0.142,0.021-0.277,0.033-0.419c0-0.091-0.077-0.188-0.235-0.188
			c-0.001,0-0.002,0-0.003,0c-0.46,0.062-0.968,0.078-2.359,0.078c-1.036,0-2.868-0.015-4.084-0.032
			c-0.062,0-0.14,0.042-0.156,0.163c-0.014,0.097,0.011,0.254,0.157,0.295c0.652,0.066,0.888,0.16,1.052,0.256
			c0.137,0.067,0.263,0.524,0.263,3.389v2.309c0,2.692-0.104,3.294-0.271,3.392c-0.159,0.095-0.396,0.19-1.056,0.258
			c-0.118,0.023-0.159,0.16-0.147,0.276c0.013,0.131,0.094,0.177,0.16,0.177c0.368-0.005,0.67-0.01,0.945-0.015
			c0.563-0.009,1.016-0.017,1.695-0.017c0.717,0,1.334,0.013,1.9,0.025c0.485,0.01,0.934,0.02,1.378,0.02
			c0.402,0,0.658-0.109,0.806-0.347c0.164-0.282,0.282-1.195,0.331-1.877C310.562,17.694,310.548,17.642,310.513,17.598z"/>
		<path id="R_1_" fill="#FFFFFF" filter="url(#shadow)" d="M325.535,19.517c-0.032-0.148-0.133-0.159-0.184-0.16c-0.102,0.016-0.306,0.016-0.44,0.016
			c-1.055,0-2.364-1.284-4.37-4.288c1.193-0.771,1.848-1.832,1.848-2.999c0-1.273-1.124-2.643-3.592-2.643
			c-0.363,0-0.71,0.009-1.043,0.017c-0.304,0.008-0.595,0.015-0.874,0.015c-0.28,0-0.592-0.007-0.917-0.015
			c-0.356-0.008-0.729-0.017-1.095-0.017c-0.068,0-0.146,0.048-0.161,0.184c-0.015,0.139,0.046,0.248,0.166,0.274
			c0.637,0.067,0.869,0.161,1.037,0.257c0.159,0.072,0.258,0.664,0.258,3.387v2.309c0,2.729-0.093,3.297-0.27,3.392
			c-0.159,0.095-0.393,0.19-1.032,0.257c-0.106,0.017-0.171,0.12-0.16,0.258c0.012,0.145,0.095,0.196,0.162,0.196h4.308
			c0.065,0,0.146-0.047,0.159-0.178c0.011-0.117-0.031-0.253-0.163-0.277c-0.461-0.042-1.099-0.114-1.327-0.257
			c-0.165-0.095-0.268-0.695-0.268-3.391v-0.309c0.628,0.03,1.028,0.033,1.67,0.011c1.25,2.121,2.105,3.227,2.946,3.81
			c0.629,0.418,1.182,0.56,2.191,0.56c0.365,0,0.682-0.014,1.066-0.091C325.589,19.771,325.537,19.527,325.535,19.517z
			 M320.81,12.689c0,1.064-0.578,2.138-1.869,2.138c-0.9,0-1.188-0.14-1.269-0.214c-0.053-0.061-0.094-0.177-0.094-1.069
			c0-2.845,0.208-3.198,0.206-3.198c0.062-0.055,0.47-0.161,0.997-0.161C320.546,10.185,320.81,11.754,320.81,12.689z"/>
		<path id="S" fill="#FFFFFF" filter="url(#shadow)" d="M331.307,13.76c-0.985-0.695-1.916-1.352-1.916-2.211c0-0.895,0.604-1.473,1.538-1.473
			c0.525,0,0.981,0.188,1.322,0.547c0.289,0.287,0.505,0.791,0.549,1.272c0,0.068,0.04,0.128,0.107,0.161
			c0.048,0.023,0.1,0.028,0.134,0.028c0.117,0,0.204-0.052,0.232-0.165c0.021-0.586,0.014-1.117,0.006-1.585
			c-0.003-0.202-0.006-0.39-0.006-0.559c0-0.118-0.12-0.202-0.252-0.169c-0.226,0.053-0.408,0.004-0.663-0.076
			c-0.282-0.09-0.67-0.213-1.317-0.213c-1.435,0-2.959,0.97-2.959,2.768c0,1.404,1.14,2.184,2.241,2.938
			c1.014,0.693,1.972,1.349,1.972,2.433c0,1.088-0.703,1.79-1.791,1.79c-0.965,0-1.563-0.557-1.896-1.023
			c-0.243-0.343-0.423-0.89-0.467-1.417c0-0.115-0.103-0.199-0.243-0.199c-0.131,0-0.226,0.076-0.225,0.169
			c-0.088,0.878-0.076,1.704,0.034,2.212c0.065,0.27,1.058,1.048,2.591,1.048c2.251,0,3.465-1.598,3.465-3.101
			C333.763,15.492,332.458,14.572,331.307,13.76z"/>
		<path id="I_2_" fill="#FFFFFF" filter="url(#shadow)" d="M342.603,19.501c-0.724-0.074-1.027-0.181-1.159-0.259c-0.179-0.096-0.281-0.681-0.281-3.389
			v-2.309c0-2.708,0.109-3.312,0.284-3.393c0.124-0.072,0.425-0.174,1.172-0.254c0.104-0.024,0.165-0.136,0.15-0.273
			c-0.016-0.134-0.097-0.182-0.162-0.182h-4.278c-0.021,0-0.131,0.008-0.152,0.157c-0.015,0.099,0.009,0.258,0.156,0.3
			c0.743,0.078,1.047,0.18,1.178,0.256c0.137,0.067,0.263,0.524,0.263,3.389v2.309c0,2.692-0.104,3.294-0.271,3.392
			c-0.104,0.062-0.394,0.176-1.183,0.258c-0.117,0.024-0.157,0.163-0.146,0.281c0.018,0.164,0.132,0.172,0.154,0.172h4.278
			c0.067,0,0.151-0.051,0.162-0.194C342.78,19.623,342.716,19.519,342.603,19.501z"/>
		<path id="T" fill="#FFFFFF" filter="url(#shadow)" d="M355.516,9.299c-0.02,0-0.04,0.003-0.073,0.011c-0.295,0.102-1.055,0.196-4.581,0.196
			c-2.331,0-3.854-0.057-4.545-0.17c-0.133,0-0.236,0.082-0.236,0.179c-0.035,0.584-0.14,1.524-0.223,2.226
			c0,0.032,0.012,0.113,0.121,0.164c0.046,0.021,0.101,0.033,0.15,0.033c0.129,0,0.188-0.079,0.199-0.146
			c0.056-0.339,0.203-0.804,0.435-1.002c0.396-0.351,1.17-0.494,2.671-0.494c0.288,0,0.529,0.011,0.688,0.023
			c0.042,0.312,0.042,1.249,0.042,1.672v3.861c0,2.695-0.103,3.296-0.268,3.39c-0.138,0.077-0.452,0.184-1.182,0.259
			c-0.119,0.024-0.161,0.162-0.149,0.281c0.017,0.164,0.132,0.173,0.155,0.173h4.279c0.022,0,0.138-0.008,0.154-0.172
			c0.012-0.118-0.028-0.257-0.159-0.283c-0.714-0.073-1.031-0.181-1.169-0.257c-0.167-0.097-0.271-0.697-0.271-3.391v-3.863
			c0-0.386,0-1.348,0.042-1.671c0.146-0.013,0.33-0.023,0.607-0.023c1.44,0,2.333,0.164,2.649,0.486
			c0.156,0.166,0.25,0.524,0.25,0.959c0,0.112,0.104,0.188,0.257,0.188c0.159,0,0.216-0.085,0.215-0.143
			c0.109-0.931,0.128-1.836,0.13-2.293C355.705,9.379,355.626,9.299,355.516,9.299z"/>
		<path id="Y_2_" fill="#FFFFFF" filter="url(#shadow)" d="M369.05,9.427h-3.247c-0.118,0-0.173,0.127-0.173,0.246c0,0.043,0.008,0.082,0.024,0.114
			c0.028,0.059,0.084,0.095,0.138,0.095h0.001c0.562,0.045,0.746,0.123,0.775,0.137c0.176,0.126-0.377,1.088-0.872,1.874
			l-1.52,2.485l-1.484-2.517c-0.27-0.417-1.089-1.687-1.068-1.853c0.063-0.038,0.238-0.104,0.679-0.126
			c0.064,0,0.12-0.036,0.149-0.096c0.017-0.033,0.024-0.072,0.024-0.116c0-0.143-0.071-0.243-0.174-0.243h-3.563
			c-0.101,0-0.166,0.093-0.166,0.238c0,0.16,0.09,0.217,0.161,0.217c0.447,0.018,0.66,0.065,0.909,0.15
			c0.201,0.085,0.432,0.286,1.571,2.108l0.889,1.405c0.435,0.716,0.77,1.272,1.103,1.868v0.426c0,2.706-0.103,3.31-0.269,3.405
			c-0.13,0.076-0.438,0.183-1.181,0.257c-0.118,0.023-0.16,0.16-0.149,0.276c0.013,0.131,0.094,0.178,0.159,0.178h4.291
			c0.067,0,0.15-0.05,0.162-0.191c0.012-0.14-0.053-0.245-0.166-0.264c-0.712-0.073-1.031-0.181-1.17-0.256
			c-0.165-0.098-0.268-0.701-0.268-3.405v-0.491c0.349-0.601,0.728-1.219,1.087-1.803l0.857-1.407
			c1.124-1.871,1.406-2.007,1.54-2.072c0.226-0.096,0.521-0.152,0.949-0.184c0.063,0,0.12-0.035,0.149-0.095
			c0.017-0.032,0.024-0.071,0.024-0.115C369.224,9.554,369.169,9.427,369.05,9.427z"/>
	</g>
</g>
</svg>
