<svg version="1.1" xmlns="http://www.w3.org/2000/svg" width="350px" height="30px" viewBox="0.5 0.5 350.5 30.5" >
<defs>
  <filter id="shadow" x="-50%" y="-50%" width="200%" height="200%">
    <feOffset result="offOut" in="SourceGraphic" dx="0" dy="0" />
    <feColorMatrix result="matrixOut" in="offOut" type="matrix"
      values="0.0 0 0 0 0 0 0.098 0 0 0 0 0 0.2812 0 0 0 0 0 1 0" />
    <feGaussianBlur result="blurOut" in="matrixOut" stdDeviation="5" />
    <feBlend in="SourceGraphic" in2="blurOut" mode="normal" />
  </filter>
</defs>

<g id="Monogram">
	<path id="B" fill="#FFFFFF" d="M25.464,11.76c0.951-0.401,1.433-1.21,1.433-2.406c0-2.026-1.308-2.853-4.516-2.853h-7.244
		l-0.11,0.018L15.013,6.61c-0.01,0.062,0.019,0.119,0.069,0.143l0.03,0.01c0.319,0.07,0.464,0.109,0.717,0.232
		c0.137,0.07,0.159,0.187,0.159,0.501l-0.002,9.301c0,0.313-0.024,0.436-0.159,0.504c-0.264,0.127-0.413,0.167-0.72,0.235L15,17.578
		l0.008,0.1c0.005,0.069,0.06,0.12,0.127,0.12h7.524c3.815,0,4.616-1.812,4.616-3.331C27.274,13.07,26.666,12.161,25.464,11.76z
		 M21.376,11.01h-1.638V8.809h1.592c1.095,0,1.651,0.165,1.651,1.071C22.981,10.619,22.426,11.01,21.376,11.01z M23.18,14.19
		c0,0.83-0.643,1.251-1.911,1.251h-1.531V12.94h1.367C22.078,12.939,23.18,12.939,23.18,14.19z"/>
	<path id="Y" fill="#FFFFFF" d="M41.502,6.501H36.29L36.176,6.52l-0.01,0.097c-0.005,0.052,0.018,0.1,0.056,0.126l0.023,0.023h0.045
		c0.11,0,0.222,0.005,0.288,0.074c0.049,0.051,0.072,0.141,0.066,0.267c-0.009,0.233-1.03,1.762-1.578,2.582
		c-0.226,0.34-0.417,0.626-0.532,0.808c-0.122-0.184-0.264-0.393-0.415-0.616c-0.667-0.985-1.677-2.475-1.686-2.776
		c-0.004-0.095,0.02-0.168,0.073-0.224c0.07-0.074,0.194-0.116,0.341-0.116l0.042-0.002l0.022-0.016
		c0.044-0.026,0.068-0.079,0.061-0.136l-0.031-0.112H27.41l-0.109,0.018L27.286,6.61c-0.01,0.065,0.022,0.125,0.076,0.146
		l0.027,0.009c0.213,0.041,0.319,0.063,0.585,0.192c0.023,0.012,0.09,0.056,0.114,0.078c0.162,0.135,0.288,0.285,0.497,0.596
		l3.814,5.649l0.001,3.52c0,0.311-0.025,0.433-0.159,0.503c-0.262,0.125-0.41,0.168-0.722,0.236l-0.109,0.041l0.008,0.099
		c0.006,0.07,0.06,0.121,0.127,0.121h5.897c0.067,0,0.121-0.052,0.126-0.122c0.004-0.051-0.019-0.098-0.065-0.123l0.001-0.002
		l-0.038-0.016c-0.312-0.067-0.459-0.11-0.718-0.234c-0.136-0.069-0.16-0.191-0.16-0.501v-3.5l3.821-5.669
		c0.21-0.313,0.335-0.463,0.497-0.598c0.027-0.023,0.087-0.074,0.124-0.098c0.145-0.093,0.217-0.132,0.399-0.172l0.031-0.012
		c0.049-0.024,0.077-0.081,0.068-0.141L41.502,6.501z"/>
	<path id="U" fill="#FFFFFF" d="M55.591,6.501h-5.688l-0.113,0.02l-0.013,0.095c-0.008,0.068,0.029,0.128,0.1,0.147
		c0.318,0.069,0.463,0.108,0.716,0.232c0.138,0.072,0.163,0.193,0.163,0.5v5.592c0,1.324-0.793,2.144-2.071,2.144
		c-1.279,0-2.073-0.822-2.073-2.144l0.001-5.589c0-0.309,0.024-0.431,0.159-0.5c0.259-0.129,0.404-0.166,0.695-0.233
		c0.019,0,0.038-0.004,0.055-0.014L47.6,6.73l-0.004-0.103c-0.004-0.072-0.059-0.125-0.128-0.125h-5.282l-0.114,0.02l-0.012,0.096
		c-0.006,0.055,0.018,0.106,0.06,0.131l0.042,0.017c0.163,0.038,0.268,0.09,0.388,0.194c0.137,0.114,0.181,0.246,0.181,0.539v5.496
		c0,4.357,3.732,5.007,5.957,5.007c2.224,0,5.955-0.65,5.955-5.007V7.497c0-0.307,0.024-0.429,0.158-0.497
		c0.258-0.128,0.404-0.165,0.698-0.233l0.043-0.002l0.021-0.018c0.043-0.026,0.067-0.078,0.059-0.135L55.591,6.501z"/>
</g>
<g id="Logotype">
	<g id="Brigham">
		<path id="B_1_" fill="#FFFFFF" d="M76.184,17.418c-0.283,0-0.497-0.007-0.697-0.012c-0.243-0.009-0.42-0.015-0.64-0.015
			c-0.217,0-0.455,0.007-0.705,0.012l-0.103,0.003c-0.273,0.007-0.556,0.012-0.84,0.012c-0.098,0-0.21-0.069-0.227-0.22
			c-0.014-0.128,0.05-0.275,0.198-0.305c0.496-0.05,0.781-0.089,0.903-0.16c0.17-0.117,0.17-2.116,0.17-2.773v-1.893
			c0-0.655,0-2.648-0.166-2.772c-0.126-0.073-0.42-0.113-0.885-0.158c-0.154-0.037-0.238-0.166-0.219-0.316
			c0.018-0.147,0.13-0.215,0.226-0.215c0.284,0,0.568,0.007,0.84,0.013c0.329,0.008,0.58,0.014,0.808,0.014
			c0.219,0,0.394-0.006,0.575-0.011c0.234-0.008,0.456-0.016,0.763-0.016c1.956,0,2.666,1.222,2.666,2.043
			c0,0.694-0.378,1.328-1.069,1.802c1.178,0.396,1.849,1.215,1.849,2.272C79.629,15.966,78.726,17.418,76.184,17.418z
			 M75.464,13.019c-0.015,0.302-0.017,1.08-0.017,1.666c0,1.665,0.111,1.897,0.116,1.905c0.037,0.033,0.366,0.154,0.994,0.154
			c1.03,0,1.723-0.681,1.723-1.694c0-0.609-0.221-1.125-0.638-1.493c-0.404-0.355-0.977-0.551-1.615-0.551
			C75.747,13.006,75.569,13.012,75.464,13.019z M75.466,12.328c0.104,0.013,0.311,0.029,0.705,0.029
			c0.874,0,1.356-0.515,1.356-1.449c0-1.077-0.69-1.641-1.371-1.641c-0.378,0-0.652,0.043-0.715,0.065
			c0.025,0.065,0.007,0.753,0.007,1.98C75.448,11.927,75.458,12.203,75.466,12.328z"/>
		<path id="R" fill="#FFFFFF" d="M83.185,17.417c-0.098,0-0.211-0.069-0.228-0.221c-0.013-0.128,0.051-0.274,0.198-0.304
			c0.469-0.05,0.709-0.086,0.834-0.159c0.116-0.1,0.176-1.032,0.176-2.774v-1.894c0-1.742-0.059-2.676-0.177-2.776
			c-0.114-0.066-0.319-0.105-0.811-0.154c-0.154-0.037-0.238-0.165-0.219-0.315c0.019-0.148,0.131-0.216,0.227-0.216
			c0.299,0,0.587,0.007,0.863,0.014c0.25,0.007,0.485,0.01,0.719,0.01c0.233,0,0.467-0.003,0.714-0.01
			c0.273-0.007,0.558-0.014,0.857-0.014c2.049,0,2.966,1.137,2.966,2.264c0,1.207-0.784,1.991-1.476,2.449
			c1.641,2.427,2.673,3.464,3.444,3.464c0.007,0,0.013,0,0.02,0c0.117,0,0.257-0.001,0.344-0.011h0.001
			c0.139,0,0.236,0.086,0.259,0.22c0.021,0.123-0.02,0.278-0.158,0.325c-0.306,0.063-0.506,0.074-0.818,0.074
			c-0.824,0-1.241-0.111-1.785-0.475c-0.651-0.445-1.327-1.336-2.405-3.17c-0.23,0.005-0.445,0.007-0.649,0.007
			c-0.259,0-0.498-0.004-0.723-0.012v0.219c0,1.76,0.061,2.693,0.18,2.771c0.101,0.054,0.382,0.084,0.738,0.124l0.308,0.034
			c0.165,0.028,0.239,0.177,0.228,0.304c-0.011,0.13-0.106,0.224-0.227,0.224h-3.4V17.417z M85.403,13.027
			c0.045,0,0.402,0.07,1.051,0.07c0.984,0,1.5-0.873,1.5-1.734c0-0.995-0.428-2.057-1.628-2.057c-0.425,0-0.828,0.055-0.916,0.083
			c0.04,0.024-0.052,0.76-0.052,2.677c0,0.799,0.032,0.939,0.042,0.962C85.399,13.027,85.401,13.027,85.403,13.027z"/>
		<path id="I" fill="#FFFFFF" d="M93.767,17.418c-0.103,0-0.214-0.077-0.226-0.224c-0.01-0.126,0.064-0.276,0.221-0.303
			c0.372-0.038,0.787-0.081,0.918-0.158c0.174-0.113,0.174-2.115,0.174-2.773v-1.893c0-0.655,0-2.651-0.168-2.772
			c-0.144-0.084-0.605-0.129-0.909-0.158c-0.173-0.033-0.246-0.182-0.234-0.312c0.014-0.144,0.123-0.219,0.225-0.219h3.376
			c0.096,0,0.207,0.067,0.226,0.215c0.015,0.125-0.048,0.276-0.192,0.311c-0.351,0.036-0.812,0.083-0.947,0.161
			c-0.114,0.1-0.173,1.033-0.173,2.775v1.893c0,1.742,0.059,2.676,0.177,2.776c0.125,0.072,0.544,0.115,0.915,0.153
			c0.149,0.031,0.235,0.156,0.22,0.308c-0.016,0.152-0.129,0.221-0.226,0.221h-3.377V17.418z"/>
		<path id="G" fill="#FFFFFF" d="M105.159,17.497c-2.594,0-4.704-1.965-4.704-4.382c0-2.279,1.598-4.587,4.653-4.587
			c0.779,0,1.377,0.15,1.813,0.26c0.277,0.07,0.48,0.119,0.628,0.119c0,0,0.113-0.01,0.121-0.01c0.222,0,0.313,0.118,0.313,0.233
			l0.023,0.54c0.02,0.419,0.041,0.873,0.041,1.332c0,0.138-0.118,0.247-0.268,0.247c-0.146,0-0.264-0.094-0.286-0.228
			c-0.035-0.331-0.218-0.709-0.445-0.926c-0.451-0.424-1.266-0.853-2.069-0.853c-2.2,0-3.185,1.757-3.185,3.499
			c0,1.929,1.335,3.98,3.809,3.98c0.458,0,0.965-0.089,1.342-0.232c-0.007-0.719-0.028-2.608-0.122-2.784
			c-0.083-0.039-0.399-0.08-0.798-0.132c-0.148-0.01-0.23-0.062-0.271-0.133c-0.026-0.045-0.04-0.099-0.04-0.152
			c0-0.164,0.117-0.253,0.228-0.253h3.011c0.133,0,0.232,0.113,0.232,0.264c0,0.054-0.013,0.104-0.039,0.147
			c-0.044,0.074-0.121,0.118-0.206,0.118l-0.111,0.016c-0.37,0.047-0.508,0.065-0.61,0.133c-0.056,0.105-0.084,1.031-0.066,2.74
			v0.232l-0.098,0.058C107.253,17.222,106.199,17.497,105.159,17.497z"/>
		<path id="H" fill="#FFFFFF" d="M118.492,17.418c-0.098,0-0.21-0.069-0.226-0.22c-0.014-0.128,0.05-0.275,0.198-0.305
			c0.513-0.055,0.708-0.092,0.843-0.164c0.074-0.057,0.166-0.587,0.166-2.769v-0.67h-4.646v0.67c0,0.656,0,2.654,0.169,2.772
			c0.121,0.069,0.316,0.106,0.806,0.157c0.166,0.033,0.233,0.181,0.22,0.309c-0.016,0.151-0.128,0.22-0.226,0.22h-3.155
			c-0.098,0-0.21-0.069-0.226-0.22c-0.013-0.128,0.051-0.275,0.199-0.305c0.467-0.05,0.707-0.085,0.834-0.16
			c0.114-0.099,0.173-1.032,0.173-2.773v-1.893c0-1.741-0.059-2.675-0.175-2.776c-0.114-0.066-0.319-0.105-0.81-0.154
			c-0.17-0.04-0.236-0.189-0.22-0.317c0.017-0.146,0.129-0.214,0.224-0.214h3.155c0.096,0,0.208,0.067,0.226,0.215
			c0.015,0.124-0.047,0.275-0.192,0.31c-0.509,0.053-0.708,0.091-0.831,0.161c-0.17,0.117-0.17,2.117-0.17,2.775v0.486h4.646v-0.486
			c0-1.741-0.059-2.675-0.175-2.776c-0.129-0.068-0.328-0.106-0.812-0.154c-0.155-0.037-0.239-0.167-0.219-0.318
			c0.018-0.146,0.129-0.213,0.224-0.213h3.156c0.096,0,0.207,0.067,0.226,0.215c0.015,0.125-0.048,0.275-0.192,0.31
			c-0.516,0.053-0.712,0.091-0.85,0.164c-0.109,0.1-0.166,1.033-0.166,2.771v1.893c0,2.195,0.095,2.72,0.174,2.775
			c0.127,0.066,0.326,0.103,0.814,0.154c0.166,0.033,0.233,0.181,0.22,0.309c-0.016,0.151-0.129,0.22-0.226,0.22L118.492,17.418
			L118.492,17.418z"/>
		<path id="A" fill="#FFFFFF" d="M132.386,16.881c-0.304-0.032-0.456-0.048-0.616-0.143c-0.159-0.103-0.471-0.796-1.284-2.851
			l-0.727-1.895c-0.446-1.13-0.779-2.033-1.186-3.214c-0.035-0.123-0.145-0.205-0.273-0.205c-0.121,0-0.227,0.073-0.281,0.201
			c-0.263,0.854-0.615,1.806-0.969,2.765l-0.856,2.351c-0.638,1.742-1.051,2.688-1.23,2.813c-0.152,0.112-0.346,0.147-0.731,0.187
			c-0.13,0.023-0.217,0.141-0.206,0.281c0.012,0.143,0.113,0.246,0.24,0.246h2.438c0.122,0,0.218-0.096,0.233-0.234
			c0.015-0.147-0.066-0.265-0.214-0.295c-0.274-0.026-0.614-0.058-0.649-0.114c0-0.319,0.477-1.65,0.849-2.655h2.367
			c0.488,1.221,0.978,2.482,0.994,2.682c-0.051,0.039-0.33,0.065-0.465,0.077l-0.123,0.013c-0.127,0.029-0.204,0.149-0.189,0.294
			c0.014,0.137,0.11,0.232,0.232,0.232h2.701c0.123,0,0.219-0.096,0.233-0.233C132.688,17.039,132.606,16.919,132.386,16.881z
			 M127.183,13.396l0.91-2.524l0.929,2.524H127.183z"/>
		<path id="M" fill="#FFFFFF" d="M140.287,17.481c-0.093,0-0.179-0.042-0.234-0.115l-2.897-5.668l-0.155,2.213
			c-0.21,2.326-0.093,2.783-0.005,2.849c0.077,0.059,0.409,0.096,0.63,0.12l0.102,0.011c0.144,0.03,0.228,0.15,0.213,0.296
			c-0.015,0.138-0.111,0.233-0.234,0.233h-2.74c-0.099,0-0.207-0.072-0.221-0.21c-0.014-0.131,0.061-0.285,0.209-0.316
			c0.372-0.039,0.745-0.077,0.85-0.175c0.08-0.068,0.232-0.514,0.391-2.772l0.173-2.576c0.052-0.864,0.105-1.746,0.126-2.541
			c0.025-0.158,0.145-0.255,0.299-0.255c0.111,0,0.205,0.054,0.25,0.143l3.46,6.847l3.199-6.842c0.019-0.08,0.123-0.148,0.247-0.148
			c0.164,0,0.292,0.114,0.292,0.26c0.064,1.095,0.127,2.018,0.246,3.213l0.194,1.892c0.165,1.474,0.311,2.703,0.436,2.789
			c0.134,0.072,0.33,0.11,0.838,0.161c0.168,0.035,0.251,0.198,0.235,0.329c-0.012,0.116-0.104,0.2-0.217,0.2l-3.038-0.001
			c-0.124,0-0.227-0.105-0.239-0.245c-0.012-0.141,0.074-0.258,0.204-0.282l0.173-0.018c0.213-0.023,0.44-0.047,0.501-0.096
			c0.062-0.09,0.089-0.65-0.149-2.795l-0.23-2.33l-2.675,5.691C140.477,17.431,140.39,17.481,140.287,17.481z"/>
	</g>
	<g id="Young">
		<path id="Y_1_" fill="#FFFFFF" d="M156.087,17.417c-0.102,0-0.212-0.076-0.227-0.222c-0.013-0.127,0.051-0.273,0.2-0.303
			c0.385-0.041,0.811-0.085,0.939-0.16c0.079-0.055,0.174-0.584,0.174-2.787v-0.35c-0.274-0.458-0.556-0.929-0.891-1.48
			l-1.061-1.687c-0.557-0.886-0.741-1.181-0.832-1.212c-0.152-0.063-0.273-0.069-0.494-0.081l-0.221-0.013
			c-0.067,0-0.14-0.04-0.183-0.105l-0.016-0.025L153.45,8.87c0-0.136,0.089-0.276,0.239-0.276h2.776
			c0.134,0,0.235,0.117,0.235,0.271c0,0.168-0.122,0.258-0.235,0.258l-0.141,0.006c-0.111,0.004-0.277,0.01-0.387,0.023
			c0.111,0.265,0.508,0.982,0.926,1.736l1.109,1.873l1.255-2.098c0.786-1.251,0.818-1.485,0.816-1.519
			c-0.006,0.008-0.044,0.011-0.1,0.011c-0.143,0-0.406-0.02-0.554-0.031c-0.123-0.001-0.239-0.097-0.239-0.258
			c0-0.155,0.101-0.272,0.236-0.272h2.466c0.134,0,0.235,0.117,0.235,0.272c0,0.167-0.121,0.258-0.235,0.258
			c-0.385,0.028-0.609,0.044-0.758,0.102c-0.087,0.045-0.408,0.532-1.135,1.735l-0.739,1.218c-0.294,0.477-0.588,0.956-0.856,1.416
			l0.013,0.351c0,1.75,0.06,2.689,0.177,2.789c0.127,0.073,0.564,0.118,0.916,0.154c0.149,0.031,0.235,0.157,0.219,0.309
			c-0.016,0.151-0.129,0.219-0.226,0.219H156.087z"/>
		<path id="O" fill="#FFFFFF" d="M168.533,17.497c-2.485,0-4.431-1.925-4.431-4.382c0-2.833,2.395-4.587,4.613-4.587
			c2.485,0,4.431,1.924,4.431,4.38c0,1.161-0.46,2.316-1.263,3.168C171.021,16.993,169.831,17.497,168.533,17.497z M168.469,9.293
			c-2.095,0-3.032,1.731-3.032,3.446c0,1.928,1.349,3.993,3.358,3.993c2.085,0,3.018-1.731,3.018-3.447
			C171.811,11.357,170.468,9.293,168.469,9.293z"/>
		<path id="U_1_" fill="#FFFFFF" d="M180.39,17.498c-2.035,0-3.457-1.325-3.457-3.222v-2.208c0-1.741-0.059-2.676-0.175-2.776
			c-0.117-0.067-0.323-0.106-0.812-0.154c-0.154-0.038-0.238-0.167-0.218-0.318c0.019-0.146,0.13-0.213,0.225-0.213h3.218
			c0.12,0,0.218,0.096,0.232,0.228c0.015,0.146-0.07,0.272-0.202,0.299c-0.475,0.048-0.752,0.088-0.877,0.159
			c-0.17,0.117-0.17,2.117-0.17,2.775v1.972c0,1.549,0.995,2.551,2.536,2.551c1.369,0,2.253-0.946,2.253-2.409v-2.114
			c0-2.24-0.096-2.688-0.153-2.756c-0.11-0.101-0.52-0.141-0.849-0.174c-0.146-0.029-0.232-0.147-0.219-0.289
			c0.014-0.14,0.115-0.242,0.239-0.242h2.765c0.121,0,0.217,0.094,0.233,0.228c0.017,0.144-0.059,0.266-0.185,0.298
			c-0.482,0.048-0.723,0.086-0.822,0.176c-0.058,0.069-0.157,0.52-0.157,2.759v2.178C183.795,15.822,182.602,17.498,180.39,17.498z"
			/>
		<path id="N" fill="#FFFFFF" d="M196.281,17.481c-0.1,0-0.193-0.035-0.254-0.098l-6.088-6.491l0.044,3.064
			c0.02,1.699,0.113,2.563,0.295,2.72c0.047,0.031,0.473,0.159,0.822,0.172c0.111,0,0.227,0.095,0.227,0.276
			c0,0.173-0.097,0.294-0.235,0.294h-2.983c-0.105,0-0.218-0.077-0.235-0.251c-0.015-0.16,0.065-0.289,0.196-0.315
			c0.587-0.061,0.797-0.145,0.871-0.205c0.11-0.118,0.164-1.05,0.146-2.687l-0.033-2.516c-0.01-0.903-0.02-1.815-0.07-2.626
			c0-0.165,0.136-0.276,0.332-0.276c0.124,0,0.224,0.051,0.275,0.139l6.069,6.489l-0.043-3.102
			c-0.013-2.508-0.204-2.658-0.276-2.715c-0.11-0.083-0.409-0.142-0.916-0.179c-0.161-0.038-0.237-0.165-0.216-0.333
			c0.022-0.163,0.131-0.236,0.231-0.236h3.011c0.103,0,0.215,0.075,0.233,0.242c0.019,0.158-0.057,0.292-0.187,0.323
			c-0.46,0.048-0.712,0.111-0.827,0.205c-0.111,0.112-0.169,1.044-0.161,2.689l0.019,2.77c0.005,0.758,0.01,1.617,0.058,2.37
			c0.012,0.037-0.006,0.111-0.05,0.167C196.459,17.471,196.332,17.481,196.281,17.481z"/>
		<path id="G_1_" fill="#FFFFFF" d="M205.555,17.497c-2.593,0-4.702-1.965-4.702-4.382c0-2.279,1.598-4.587,4.653-4.587
			c0.784,0,1.381,0.151,1.817,0.261c0.263,0.066,0.476,0.118,0.624,0.118c0,0,0.113-0.011,0.121-0.011
			c0.221,0,0.312,0.118,0.312,0.233l0.023,0.527c0.021,0.417,0.043,0.878,0.043,1.345c0,0.138-0.118,0.247-0.268,0.247
			c-0.144,0-0.261-0.092-0.287-0.225c-0.037-0.336-0.221-0.715-0.447-0.929c-0.45-0.424-1.263-0.853-2.067-0.853
			c-2.201,0-3.187,1.757-3.187,3.499c0,1.929,1.336,3.98,3.809,3.98c0.456,0,0.964-0.089,1.344-0.232
			c-0.008-0.72-0.03-2.61-0.122-2.785c-0.084-0.038-0.401-0.079-0.802-0.132c-0.147-0.01-0.224-0.056-0.268-0.132
			c-0.027-0.045-0.041-0.1-0.041-0.153c0-0.164,0.117-0.253,0.228-0.253h3.011c0.132,0,0.232,0.113,0.232,0.264
			c0,0.055-0.013,0.107-0.04,0.149c-0.042,0.071-0.119,0.116-0.206,0.116l-0.107,0.015c-0.372,0.047-0.511,0.066-0.613,0.133
			c-0.055,0.106-0.084,1.033-0.067,2.74v0.232l-0.098,0.058C207.648,17.222,206.593,17.497,205.555,17.497z"/>
	</g>
	<g id="University">
		<path fill="#FFFFFF" d="M222.634,17.501c-2.051,0-3.54-1.357-3.54-3.226v-2.207c0-0.702,0-2.568-0.157-2.689
			c-0.13-0.076-0.314-0.15-0.819-0.202c-0.181-0.048-0.236-0.211-0.218-0.354c0.023-0.151,0.129-0.218,0.225-0.218h3.363
			c0.098,0,0.205,0.067,0.225,0.218c0.018,0.137-0.032,0.303-0.184,0.346c-0.47,0.053-0.76,0.118-0.9,0.2
			c-0.082,0.058-0.174,0.57-0.174,2.698v1.869c0,1.527,0.994,2.554,2.473,2.554c1.617,0,2.193-1.245,2.193-2.409v-2.014
			c0-1.713-0.055-2.594-0.166-2.694c-0.1-0.082-0.388-0.15-0.852-0.198c-0.156-0.043-0.233-0.179-0.209-0.343
			c0.021-0.157,0.13-0.228,0.23-0.228h2.908c0.127,0,0.223,0.102,0.239,0.254c0.016,0.155-0.063,0.284-0.194,0.314
			c-0.291,0.032-0.676,0.085-0.802,0.2c-0.168,0.149-0.168,2.066-0.168,2.696v2.181C226.107,15.826,224.89,17.501,222.634,17.501z"
			/>
		<path fill="#FFFFFF" d="M238.256,17.488c-0.082,0-0.198-0.016-0.277-0.098l-6.053-6.322l0.045,2.89
			c0.018,1.717,0.107,2.579,0.282,2.714c0.056,0.037,0.465,0.166,0.824,0.182h0.001c0.082,0,0.162,0.052,0.201,0.135l0.01,0.02
			l0.019,0.115c0,0.177-0.099,0.299-0.239,0.299h-3.077c-0.128,0-0.228-0.109-0.24-0.265c-0.013-0.184,0.1-0.285,0.21-0.301
			c0.611-0.064,0.803-0.156,0.862-0.205c0.075-0.075,0.168-0.608,0.15-2.69l-0.033-2.511c-0.011-0.905-0.02-1.82-0.072-2.633
			l-0.002-0.031l0.044-0.117c0.09-0.112,0.244-0.127,0.329-0.127c0.182,0,0.264,0.074,0.3,0.135l6.036,6.324l-0.045-2.931
			c-0.011-2.499-0.205-2.66-0.277-2.72c-0.104-0.078-0.401-0.136-0.901-0.175c-0.156-0.033-0.24-0.16-0.222-0.32
			c0.016-0.15,0.111-0.251,0.237-0.251h3.104c0.125,0,0.221,0.101,0.238,0.251c0.016,0.156-0.062,0.286-0.192,0.316
			c-0.293,0.031-0.681,0.083-0.806,0.199c-0.131,0.114-0.186,0.995-0.169,2.694l0.011,1.894c0,1.104,0,2.245,0.065,3.252
			C238.618,17.343,238.523,17.488,238.256,17.488z"/>
		<path fill="#FFFFFF" d="M242.891,17.424c-0.099,0-0.21-0.072-0.227-0.232c-0.013-0.14,0.043-0.303,0.201-0.334
			c0.662-0.068,0.874-0.162,0.935-0.198c0.177-0.101,0.177-2.056,0.177-2.698v-1.894c0-1.697-0.055-2.603-0.164-2.693
			c-0.081-0.047-0.306-0.133-0.929-0.199c-0.182-0.048-0.237-0.217-0.217-0.354c0.02-0.149,0.127-0.216,0.224-0.216h3.507
			c0.1,0,0.213,0.074,0.231,0.237c0.019,0.163-0.062,0.299-0.199,0.33c-0.633,0.069-0.855,0.154-0.933,0.198
			c-0.186,0.111-0.186,2.057-0.186,2.698v1.894c0,0.71,0,2.596,0.18,2.693c0.085,0.05,0.312,0.14,0.914,0.201
			c0.148,0.023,0.239,0.154,0.225,0.321c-0.012,0.17-0.125,0.247-0.232,0.247L242.891,17.424L242.891,17.424z"/>
		<path fill="#FFFFFF" d="M253.424,17.468c-0.228,0-0.374-0.076-0.413-0.213c-0.395-1.106-0.751-2.04-1.228-3.218l-0.764-1.893
			c-0.918-2.217-1.16-2.657-1.326-2.764c-0.152-0.104-0.374-0.163-0.77-0.203c-0.159-0.042-0.233-0.172-0.209-0.342
			c0.024-0.169,0.138-0.23,0.229-0.23h3.053c0.125,0,0.221,0.1,0.238,0.249c0.018,0.157-0.061,0.287-0.193,0.318
			c-0.553,0.064-0.585,0.151-0.586,0.155c0,0.269,0.315,1.165,0.935,2.665l1.23,3.245l1.278-3.242
			c0.543-1.375,0.807-2.226,0.807-2.602c0-0.131-0.32-0.19-0.586-0.216c-0.152-0.033-0.235-0.161-0.218-0.32
			c0.017-0.151,0.113-0.252,0.238-0.252h2.663c0.1,0,0.21,0.072,0.232,0.233c0.021,0.163-0.051,0.296-0.179,0.331
			c-0.403,0.044-0.551,0.107-0.702,0.218c-0.085,0.066-0.318,0.249-1.322,2.755l-0.989,2.494c-0.352,0.895-0.711,1.807-0.994,2.628
			C253.785,17.401,253.64,17.468,253.424,17.468z"/>
		<path fill="#FFFFFF" d="M265.474,17.435c-0.365,0-0.733-0.008-1.132-0.016c-0.473-0.01-0.975-0.02-1.557-0.02
			c-0.557,0-0.928,0.006-1.389,0.013l-0.776,0.011c-0.104,0-0.214-0.072-0.231-0.232c-0.013-0.138,0.043-0.301,0.2-0.332
			c0.531-0.055,0.715-0.128,0.835-0.2c0.174-0.102,0.174-2.056,0.174-2.698v-1.894c0-2.113-0.089-2.631-0.164-2.693
			c-0.126-0.073-0.311-0.146-0.827-0.199c-0.182-0.048-0.236-0.216-0.216-0.353c0.02-0.15,0.127-0.218,0.225-0.218
			c0.998,0.014,2.5,0.026,3.35,0.026c1.14,0,1.554-0.013,1.922-0.063c0.001,0,0.002,0,0.002,0c0.204,0,0.304,0.13,0.304,0.252
			l-0.027,0.351c-0.028,0.374-0.061,0.798-0.131,1.336l-0.005,0.032l-0.056,0.098c-0.048,0.049-0.117,0.076-0.195,0.076
			c-0.059,0-0.121-0.015-0.171-0.044c-0.087-0.049-0.139-0.134-0.139-0.229c0-0.349-0.051-0.552-0.169-0.68
			c-0.191-0.201-0.61-0.288-1.401-0.288c-0.369,0-0.723,0.007-0.934,0.016c-0.014,0.239-0.023,0.69-0.023,1.277v1.684h0.866
			c1.21,0,1.233-0.139,1.284-0.445c0.016-0.065,0.072-0.2,0.282-0.2c0.205,0,0.297,0.117,0.297,0.233l-0.025,0.622
			c-0.022,0.44-0.039,0.79-0.039,1.263c0,0.084-0.058,0.227-0.28,0.227c-0.049,0-0.094-0.007-0.134-0.021
			c-0.122-0.042-0.166-0.141-0.166-0.219c0-0.237-0.065-0.417-0.128-0.471c-0.055-0.056-0.159-0.161-1.102-0.161h-0.854v0.682
			c0,2.071,0.192,2.366,0.231,2.404c0.104,0.117,0.32,0.191,1.051,0.191c0.68,0,1.135-0.116,1.351-0.343
			c0.151-0.176,0.269-0.434,0.366-0.807c0.014-0.105,0.122-0.189,0.252-0.189c0.099,0,0.195,0.044,0.254,0.114
			c0.048,0.061,0.067,0.132,0.055,0.202c-0.04,0.564-0.14,1.322-0.283,1.571C266.077,17.331,265.84,17.435,265.474,17.435z"/>
		<path fill="#FFFFFF" d="M270.169,17.424c-0.104,0-0.216-0.077-0.231-0.251c-0.012-0.165,0.076-0.295,0.215-0.316
			c0.51-0.054,0.69-0.126,0.81-0.198c0.174-0.093,0.174-1.918,0.174-2.698v-1.894c0-0.633,0-2.559-0.158-2.691
			c-0.121-0.069-0.29-0.145-0.818-0.201c-0.154-0.033-0.239-0.165-0.223-0.332c0.018-0.165,0.129-0.239,0.23-0.239
			c0.293,0,0.591,0.007,0.878,0.013c0.289,0.007,0.543,0.013,0.772,0.013c0.228,0,0.466-0.006,0.714-0.012
			c0.292-0.007,0.568-0.014,0.858-0.014c2.092,0,3.044,1.175,3.044,2.266c0,0.961-0.523,1.841-1.477,2.487
			c1.574,2.344,2.639,3.392,3.448,3.392c0.01,0,0.02,0,0.032,0c0.104,0,0.242-0.001,0.315-0.012c0.19,0.003,0.245,0.131,0.261,0.208
			c0.007,0.029,0.058,0.287-0.123,0.37c-0.341,0.071-0.6,0.083-0.916,0.083c-0.85,0-1.316-0.12-1.852-0.476
			c-0.697-0.483-1.399-1.384-2.417-3.106c-0.204,0.007-0.379,0.01-0.549,0.01c-0.214,0-0.421-0.005-0.668-0.016v0.151
			c0,0.64,0,2.587,0.17,2.696c0.192,0.12,0.837,0.179,1.049,0.198c0.15,0.028,0.238,0.165,0.223,0.334
			c-0.016,0.162-0.129,0.234-0.229,0.234L270.169,17.424L270.169,17.424z M272.623,9.521c0.012,0-0.134,0.411-0.134,2.547
			c0,0.322,0.006,0.757,0.054,0.813c0.01,0.007,0.178,0.142,0.966,0.142c0.992,0,1.436-0.831,1.436-1.656
			c0-0.73-0.204-1.956-1.566-1.956C272.977,9.411,272.674,9.49,272.623,9.521L272.623,9.521z"/>
		<path fill="#FFFFFF" d="M283.005,17.488c-1.295,0-2.155-0.663-2.221-0.934c-0.093-0.425-0.103-1.115-0.03-1.847l0.004-0.034
			l0.06-0.109c0.052-0.053,0.131-0.084,0.217-0.084c0.17,0,0.298,0.112,0.298,0.262c0.033,0.404,0.177,0.841,0.365,1.106
			c0.259,0.364,0.726,0.798,1.476,0.798c0.832,0,1.371-0.539,1.371-1.371c0-0.838-0.764-1.36-1.574-1.914
			c-0.925-0.633-1.881-1.287-1.881-2.491c0-1.538,1.3-2.368,2.524-2.368c0.547,0,0.874,0.104,1.111,0.179
			c0.137,0.043,0.25,0.076,0.36,0.076c0.044,0,0.087-0.005,0.132-0.015c0.008,0,0.015,0,0.023,0c0.199,0,0.303,0.103,0.303,0.234
			l0.005,0.458c0.007,0.385,0.013,0.822-0.005,1.305c-0.035,0.151-0.142,0.23-0.288,0.23c-0.032,0-0.093-0.004-0.152-0.033
			c-0.089-0.042-0.143-0.127-0.143-0.221c-0.034-0.362-0.204-0.757-0.421-0.973c-0.262-0.276-0.613-0.42-1.016-0.42
			c-0.707,0-1.164,0.436-1.164,1.11c0,0.654,0.743,1.178,1.531,1.734c0.964,0.68,2.056,1.45,2.056,2.683
			C285.945,16.127,284.914,17.488,283.005,17.488z"/>
		<path fill="#FFFFFF" d="M289.758,17.424c-0.099,0-0.208-0.07-0.225-0.228c-0.013-0.14,0.042-0.304,0.197-0.337
			c0.663-0.069,0.878-0.163,0.94-0.2c0.174-0.102,0.174-2.056,0.174-2.698v-1.894c0-2.113-0.089-2.631-0.164-2.693
			c-0.099-0.057-0.34-0.137-0.931-0.199c-0.183-0.051-0.235-0.221-0.214-0.358c0.02-0.146,0.126-0.212,0.222-0.212h3.508
			c0.101,0,0.212,0.073,0.231,0.236c0.018,0.164-0.064,0.3-0.199,0.331c-0.636,0.069-0.857,0.154-0.934,0.198
			c-0.124,0.077-0.185,0.983-0.185,2.698v1.894c0,0.71,0,2.597,0.179,2.693c0.085,0.05,0.311,0.14,0.915,0.201
			c0.148,0.023,0.238,0.154,0.224,0.321c-0.012,0.17-0.128,0.248-0.231,0.248L289.758,17.424L289.758,17.424z"/>
		<path fill="#FFFFFF" d="M298.456,17.422c-0.075,0-0.207-0.048-0.225-0.23c-0.016-0.171,0.066-0.309,0.2-0.337
			c0.622-0.064,0.856-0.154,0.941-0.201c0.17-0.107,0.17-2.056,0.17-2.696v-3.167c0-0.302,0-0.973-0.026-1.279
			c-0.123-0.008-0.287-0.013-0.475-0.013c-1.205,0-1.821,0.11-2.126,0.38c-0.16,0.137-0.277,0.483-0.324,0.764
			c-0.017,0.101-0.104,0.202-0.26,0.202c-0.055,0-0.113-0.012-0.164-0.035c-0.146-0.067-0.157-0.188-0.157-0.224
			c0.069-0.585,0.154-1.354,0.183-1.831c0-0.131,0.128-0.239,0.292-0.239c0.575,0.093,1.825,0.139,3.727,0.139
			c2.885,0,3.503-0.078,3.726-0.155c0.013,0,0.028-0.001,0.04-0.001c0.208,0,0.304,0.105,0.304,0.242
			c-0.002,0.466-0.023,1.172-0.107,1.893l-0.004,0.033l-0.054,0.092c-0.035,0.036-0.101,0.078-0.216,0.078
			c-0.182,0-0.308-0.104-0.308-0.252c0-0.327-0.069-0.603-0.179-0.72c-0.164-0.166-0.663-0.367-2.102-0.367
			c-0.175,0-0.304,0.005-0.409,0.012c-0.026,0.315-0.026,1.005-0.026,1.28v3.168c0,0.642,0,2.596,0.173,2.696
			c0.085,0.048,0.319,0.137,0.919,0.199c0.151,0.03,0.235,0.165,0.218,0.339c-0.016,0.159-0.123,0.23-0.224,0.23
			C301.963,17.422,298.456,17.422,298.456,17.422z"/>
		<path fill="#FFFFFF" d="M309.38,17.424c-0.099,0-0.211-0.073-0.228-0.234c-0.012-0.139,0.045-0.301,0.201-0.332
			c0.629-0.063,0.856-0.152,0.938-0.199c0.172-0.104,0.172-2.065,0.172-2.709V13.6c-0.26-0.44-0.534-0.895-0.891-1.482l-0.728-1.15
			c-0.916-1.465-1.105-1.633-1.244-1.692c-0.19-0.065-0.356-0.101-0.711-0.115l0,0c-0.107,0-0.226-0.087-0.226-0.276
			c0-0.173,0.096-0.293,0.233-0.293h2.923c0.14,0,0.24,0.125,0.24,0.298v0.023l-0.03,0.116c-0.04,0.081-0.121,0.133-0.21,0.133
			c-0.355,0.017-0.475,0.072-0.506,0.089c0.003-0.001,0.006-0.002,0.009-0.002c0.057,0,0.184,0.277,0.899,1.385l1.138,1.927
			l1.161-1.899c0.715-1.134,0.733-1.379,0.728-1.419c0,0-0.001,0-0.002,0c-0.024,0-0.182-0.051-0.571-0.082h-0.001
			c-0.075,0-0.154-0.052-0.193-0.133l-0.01-0.021l-0.02-0.116c0-0.174,0.1-0.3,0.24-0.3h2.663c0.14,0,0.24,0.126,0.24,0.299v0.025
			l-0.032,0.116c-0.038,0.078-0.119,0.129-0.209,0.129c-0.336,0.024-0.565,0.068-0.74,0.142c-0.082,0.041-0.312,0.152-1.218,1.66
			l-0.704,1.155c-0.294,0.478-0.605,0.985-0.89,1.477l0.012,0.354c0,0.644,0,2.605,0.172,2.709c0.085,0.046,0.321,0.136,0.919,0.196
			c0.148,0.024,0.238,0.157,0.224,0.323c-0.014,0.17-0.126,0.246-0.231,0.246h-3.517V17.424z"/>
	</g>
</g>
</svg>


