<svg version="1.1" xmlns="http://www.w3.org/2000/svg" viewBox="0 0 70 30" width="70" height="30" >
<defs>  
  <filter id="shadow" x="-50%" y="-50%" width="200%" height="200%">
    <feOffset result="offOut" in="SourceGraphic" dx="0" dy="0" />
    <feColorMatrix result="matrixOut" in="offOut" type="matrix"
      values="0.0 0 0 0 0 0 0.098 0 0 0 0 0 0.28125 0 0 0 0 0 .4 0" />
    <feGaussianBlur result="blurOut" in="matrixOut" stdDeviation="3" />
    <feBlend in="SourceGraphic" in2="blurOut" mode="normal" />
  </filter>
</defs>

<g id="Monogram">
	<path id="B" fill="#FFFFFF" d="M25.464,11.76c0.951-0.401,1.433-1.21,1.433-2.406c0-2.026-1.308-2.853-4.516-2.853h-7.244
		l-0.11,0.018L15.013,6.61c-0.01,0.062,0.019,0.119,0.069,0.143l0.03,0.01c0.319,0.07,0.464,0.109,0.717,0.232
		c0.137,0.07,0.159,0.187,0.159,0.501l-0.002,9.301c0,0.313-0.024,0.436-0.159,0.504c-0.264,0.127-0.413,0.167-0.72,0.235L15,17.578
		l0.008,0.1c0.005,0.069,0.06,0.12,0.127,0.12h7.524c3.815,0,4.616-1.812,4.616-3.331C27.274,13.07,26.666,12.161,25.464,11.76z
		 M21.376,11.01h-1.638V8.809h1.592c1.095,0,1.651,0.165,1.651,1.071C22.981,10.619,22.426,11.01,21.376,11.01z M23.18,14.19
		c0,0.83-0.643,1.251-1.911,1.251h-1.531V12.94h1.367C22.078,12.939,23.18,12.939,23.18,14.19z"/>
	<path id="Y" fill="#FFFFFF" d="M41.502,6.501H36.29L36.176,6.52l-0.01,0.097c-0.005,0.052,0.018,0.1,0.056,0.126l0.023,0.023h0.045
		c0.11,0,0.222,0.005,0.288,0.074c0.049,0.051,0.072,0.141,0.066,0.267c-0.009,0.233-1.03,1.762-1.578,2.582
		c-0.226,0.34-0.417,0.626-0.532,0.808c-0.122-0.184-0.264-0.393-0.415-0.616c-0.667-0.985-1.677-2.475-1.686-2.776
		c-0.004-0.095,0.02-0.168,0.073-0.224c0.07-0.074,0.194-0.116,0.341-0.116l0.042-0.002l0.022-0.016
		c0.044-0.026,0.068-0.079,0.061-0.136l-0.031-0.112H27.41l-0.109,0.018L27.286,6.61c-0.01,0.065,0.022,0.125,0.076,0.146
		l0.027,0.009c0.213,0.041,0.319,0.063,0.585,0.192c0.023,0.012,0.09,0.056,0.114,0.078c0.162,0.135,0.288,0.285,0.497,0.596
		l3.814,5.649L32.4,16.8c0,0.311-0.025,0.433-0.159,0.503c-0.262,0.125-0.41,0.168-0.722,0.236L31.41,17.58l0.008,0.099
		c0.006,0.07,0.06,0.121,0.127,0.121h5.897c0.067,0,0.121-0.052,0.126-0.122c0.004-0.051-0.019-0.098-0.065-0.123l0.001-0.002
		l-0.038-0.016c-0.312-0.067-0.459-0.11-0.718-0.234c-0.136-0.069-0.16-0.191-0.16-0.501v-3.5l3.821-5.669
		c0.21-0.313,0.335-0.463,0.497-0.598c0.027-0.023,0.087-0.074,0.124-0.098c0.145-0.093,0.217-0.132,0.399-0.172l0.031-0.012
		c0.049-0.024,0.077-0.081,0.068-0.141L41.502,6.501z"/>
	<path id="U" fill="#FFFFFF" d="M55.591,6.501h-5.688l-0.113,0.02l-0.013,0.095c-0.008,0.068,0.029,0.128,0.1,0.147
		c0.318,0.069,0.463,0.108,0.716,0.232c0.138,0.072,0.163,0.193,0.163,0.5v5.592c0,1.324-0.793,2.144-2.071,2.144
		c-1.279,0-2.073-0.822-2.073-2.144l0.001-5.589c0-0.309,0.024-0.431,0.159-0.5c0.259-0.129,0.404-0.166,0.695-0.233
		c0.019,0,0.038-0.004,0.055-0.014L47.6,6.73l-0.004-0.103c-0.004-0.072-0.059-0.125-0.128-0.125h-5.282l-0.114,0.02L42.06,6.618
		c-0.006,0.055,0.018,0.106,0.06,0.131l0.042,0.017c0.163,0.038,0.268,0.09,0.388,0.194c0.137,0.114,0.181,0.246,0.181,0.539v5.496
		c0,4.357,3.732,5.007,5.957,5.007c2.224,0,5.955-0.65,5.955-5.007V7.497c0-0.307,0.024-0.429,0.158-0.497
		c0.258-0.128,0.404-0.165,0.698-0.233l0.043-0.002l0.021-0.018c0.043-0.026,0.067-0.078,0.059-0.135L55.591,6.501z"/>
</g>
</svg>
